<svg width="68" height="68" viewBox="0 0 68 68" fill="none" xmlns="http://www.w3.org/2000/svg">
  <path d="M50.645 58.9686C53.7094 58.9686 56.1936 56.4844 56.1936 53.42V53.42C56.1936 50.4768 55.0244 47.6542 52.9433 45.5731C50.8621 43.4919 48.0395 42.3228 45.0964 42.3228H22.9019C19.9587 42.3228 17.1361 43.4919 15.055 45.5731C12.9739 47.6542 11.8047 50.4768 11.8047 53.42V53.42" stroke="#2C60F5" stroke-width="2" stroke-linecap="round" stroke-linejoin="round" />
  <path d="M33.9996 31.2257C40.1284 31.2257 45.0968 26.2573 45.0968 20.1285C45.0968 13.9996 40.1284 9.03125 33.9996 9.03125C27.8707 9.03125 22.9023 13.9996 22.9023 20.1285C22.9023 26.2573 27.8707 31.2257 33.9996 31.2257Z" stroke="#2C60F5" stroke-width="2" stroke-linecap="round" stroke-linejoin="round" />
</svg>
  