<svg width="21" height="21" viewBox="0 0 21 21" fill="none" xmlns="http://www.w3.org/2000/svg">
<path d="M2.89686 17.0368C4.7882 18.9518 7.31491 20.0098 10.013 20.0098C12.6904 20.0068 15.2024 18.9577 17.0908 17.0605C18.988 15.1514 20.0282 12.6188 20.0135 9.93544C19.9869 4.46829 15.5097 0.0118209 10.0307 0H10.0101C4.55769 0 0.0687177 4.43873 0.000747717 9.89111C-0.0317597 12.5744 0.996655 15.113 2.89686 17.0368ZM3.75978 3.83291C4.55769 3.02614 5.49154 2.38781 6.53177 1.93862C7.60156 1.47761 8.73637 1.23528 9.90072 1.2205C11.0976 1.20573 12.2619 1.43032 13.3613 1.88543C14.4252 2.32575 15.3826 2.96408 16.2012 3.77677C17.8857 5.45237 18.8077 7.68652 18.793 10.0714C18.7871 11.2357 18.5506 12.3676 18.0955 13.4374C17.6523 14.4746 17.0228 15.4055 16.2249 16.2094C14.567 17.8702 12.3654 18.7834 10.0189 18.7863H10.0012C7.67249 18.7863 5.47676 17.882 3.82184 16.2419C2.16692 14.6047 1.24489 12.4267 1.22125 10.1127C1.19761 7.73971 2.09895 5.51148 3.75978 3.83291Z" fill="white"/>
<path d="M10.7221 7.29688H9.28589V15.6365H10.7221V7.29688Z" fill="white"/>
<path d="M9.99817 5.82213H10.0011C10.406 5.82213 10.7281 5.50592 10.7311 5.10106C10.7311 4.90306 10.6572 4.71688 10.5212 4.58094C10.3883 4.445 10.205 4.36816 10.01 4.36816C10.01 4.36816 10.007 4.36816 10.0041 4.36816C9.80904 4.36816 9.62582 4.44204 9.48988 4.57503C9.35394 4.71097 9.2771 4.89124 9.2771 5.08924C9.2771 5.28724 9.35098 5.47341 9.48396 5.60935C9.62286 5.74529 9.80313 5.82213 9.99817 5.82213Z" fill="white"/>
</svg>
