<svg width="41" height="43" viewBox="0 0 41 43" fill="none" xmlns="http://www.w3.org/2000/svg">
  <g filter="url(#filter0_d_16_12330)">
    <path d="M13.2722 18.2447C12.9093 17.8334 12.9093 17.1666 13.2722 16.7553L19.8429 9.30846C20.2058 8.89718 20.7942 8.89718 21.1571 9.30846L27.7278 16.7553C28.0907 17.1666 28.0907 17.8334 27.7278 18.2447L21.1571 25.6915C20.7942 26.1028 20.2058 26.1028 19.8429 25.6915L13.2722 18.2447Z" fill="white" />
    <path d="M13.6471 17.0861L20.2178 9.63927C20.3817 9.45358 20.6183 9.45358 20.7822 9.63927L27.3529 17.0861C27.549 17.3084 27.549 17.6916 27.3529 17.9139L20.7822 25.3607C20.6183 25.5464 20.3817 25.5464 20.2178 25.3607L13.6471 17.9139C13.451 17.6916 13.451 17.3084 13.6471 17.0861Z" stroke="#BDBDBD" />
  </g>
  <defs>
    <filter id="filter0_d_16_12330" x="0" y="0" width="41" height="43" filterUnits="userSpaceOnUse" color-interpolation-filters="sRGB">
      <feFlood flood-opacity="0" result="BackgroundImageFix" />
      <feColorMatrix in="SourceAlpha" type="matrix" values="0 0 0 0 0 0 0 0 0 0 0 0 0 0 0 0 0 0 127 0" result="hardAlpha" />
      <feOffset dy="4" />
      <feGaussianBlur stdDeviation="6.5" />
      <feColorMatrix type="matrix" values="0 0 0 0 0 0 0 0 0 0 0 0 0 0 0 0 0 0 0.09 0" />
      <feBlend mode="normal" in2="BackgroundImageFix" result="effect1_dropShadow_16_12330" />
      <feBlend mode="normal" in="SourceGraphic" in2="effect1_dropShadow_16_12330" result="shape" />
    </filter>
  </defs>
</svg>
  