<svg width="54" height="52" viewBox="0 0 54 52" fill="none" xmlns="http://www.w3.org/2000/svg">
  <rect width="54" height="52" rx="10" fill="#2C60F5" />
  <path d="M31.1641 20.0107C31.8929 20.0107 32.4832 19.4243 32.4832 18.6955V17.3178C32.4832 16.5883 31.8929 16 31.1641 16C30.436 16 29.8477 16.5883 29.8477 17.3178V18.6955C29.8477 19.4243 30.436 20.0107 31.1641 20.0107Z" fill="white" />
  <path d="M35.8445 18.28H33.1925V18.9507C33.1925 20.0561 32.2936 20.9577 31.1856 20.9577C30.0762 20.9577 29.1799 20.0561 29.1799 18.9507V18.28H23.8264V18.9507C23.8264 20.0561 22.9275 20.9577 21.8194 20.9577C20.7114 20.9577 19.8138 20.0555 19.8138 18.9501V18.28L17.1367 18.2463V34.9999H18.4749H34.5281L35.8637 34.996L35.8445 18.28ZM34.5281 33.6657H18.4749V22.9627H34.5281V33.6657Z" fill="white" />
  <path d="M21.7969 20.0107C22.5257 20.0107 23.1147 19.4243 23.1147 18.6955V17.3178C23.1147 16.5883 22.5264 16 21.7969 16C21.0694 16 20.4805 16.5883 20.4805 17.3178V18.6955C20.4805 19.4243 21.0694 20.0107 21.7969 20.0107Z" fill="white" />
  <path d="M25.9393 24.3992H23.832V26.2597H25.9393V24.3992Z" fill="white" />
  <path d="M29.3481 24.3992H27.2383V26.2597H29.3481V24.3992Z" fill="white" />
  <path d="M32.5096 24.3992H30.4023V26.2597H32.5096V24.3992Z" fill="white" />
  <path d="M25.9393 27.4893H23.832V29.3485H25.9393V27.4893Z" fill="white" />
  <path d="M29.3481 27.4893H27.2383V29.3485H29.3481V27.4893Z" fill="white" />
  <path d="M32.5096 27.4893H30.4023V29.3485H32.5096V27.4893Z" fill="white" />
  <path d="M25.9393 30.6404H23.832V32.4996H25.9393V30.6404Z" fill="white" />
  <path d="M22.5864 27.4893H20.4805V29.3485H22.5864V27.4893Z" fill="white" />
  <path d="M22.5864 30.6404H20.4805V32.4996H22.5864V30.6404Z" fill="white" />
  <path d="M29.3481 30.6404H27.2383V32.4996H29.3481V30.6404Z" fill="white" />
  <path d="M32.5096 30.6404H30.4023V32.4996H32.5096V30.6404Z" fill="white" />
</svg>
  