<svg width="183" height="43" viewBox="0 0 183 43" fill="none" xmlns="http://www.w3.org/2000/svg">
<path d="M1.047 17.184V0.144H12.615V3.6H4.983V7.272H11.271V10.464H4.983V17.184H1.047Z" fill="white"/>
<path d="M20.1525 17.424C18.7125 17.424 17.4885 17.12 16.4805 16.512C15.4885 15.904 14.7285 15.104 14.2005 14.112C13.6725 13.12 13.4085 12.048 13.4085 10.896C13.4085 9.728 13.6725 8.648 14.2005 7.656C14.7285 6.664 15.4965 5.864 16.5045 5.256C17.5125 4.648 18.7285 4.344 20.1525 4.344C21.5765 4.344 22.7925 4.648 23.8005 5.256C24.8085 5.864 25.5765 6.664 26.1045 7.656C26.6325 8.648 26.8965 9.728 26.8965 10.896C26.8965 12.048 26.6325 13.12 26.1045 14.112C25.5765 15.104 24.8085 15.904 23.8005 16.512C22.7925 17.12 21.5765 17.424 20.1525 17.424ZM17.3445 10.896C17.3445 11.872 17.6085 12.664 18.1365 13.272C18.6805 13.88 19.3525 14.184 20.1525 14.184C20.9365 14.184 21.5925 13.88 22.1205 13.272C22.6645 12.664 22.9365 11.872 22.9365 10.896C22.9365 9.92 22.6645 9.128 22.1205 8.52C21.5925 7.912 20.9365 7.608 20.1525 7.608C19.3525 7.608 18.6805 7.912 18.1365 8.52C17.6085 9.128 17.3445 9.92 17.3445 10.896Z" fill="white"/>
<path d="M37.2729 7.872C36.3449 7.888 35.5049 8.04 34.7529 8.328C34.0009 8.616 33.4569 9.048 33.1209 9.624V17.184H29.2809V4.584H32.8089V7.128C33.2409 6.28 33.8009 5.616 34.4889 5.136C35.1769 4.656 35.8969 4.408 36.6489 4.392C36.9689 4.392 37.1769 4.4 37.2729 4.416V7.872Z" fill="white"/>
<path d="M45.3006 17.424C43.8926 17.424 42.6766 17.12 41.6526 16.512C40.6446 15.904 39.8686 15.104 39.3246 14.112C38.7966 13.12 38.5326 12.04 38.5326 10.872C38.5326 9.72 38.7966 8.648 39.3246 7.656C39.8686 6.664 40.6446 5.864 41.6526 5.256C42.6606 4.648 43.8766 4.344 45.3006 4.344C46.7406 4.344 47.9566 4.656 48.9486 5.28C49.9566 5.888 50.7086 6.688 51.2046 7.68L47.4606 8.808C46.9646 8.008 46.2366 7.608 45.2766 7.608C44.4926 7.608 43.8286 7.904 43.2846 8.496C42.7406 9.088 42.4686 9.88 42.4686 10.872C42.4686 11.864 42.7406 12.664 43.2846 13.272C43.8286 13.88 44.4926 14.184 45.2766 14.184C45.7566 14.184 46.1966 14.072 46.5966 13.848C46.9966 13.608 47.2926 13.304 47.4846 12.936L51.2286 14.088C50.7646 15.064 50.0206 15.864 48.9966 16.488C47.9886 17.112 46.7566 17.424 45.3006 17.424Z" fill="white"/>
<path d="M59.3509 17.424C57.9269 17.424 56.7109 17.128 55.7029 16.536C54.6949 15.944 53.9189 15.16 53.3749 14.184C52.8469 13.208 52.5829 12.152 52.5829 11.016C52.5829 9.8 52.8469 8.688 53.3749 7.68C53.9029 6.672 54.6709 5.864 55.6789 5.256C56.6869 4.648 57.9109 4.344 59.3509 4.344C60.7749 4.344 61.9909 4.648 62.9989 5.256C64.0069 5.864 64.7669 6.664 65.2789 7.656C65.8069 8.648 66.0709 9.712 66.0709 10.848C66.0709 11.312 66.0389 11.72 65.9749 12.072H56.6629C56.7269 12.92 57.0309 13.568 57.5749 14.016C58.1349 14.448 58.7669 14.664 59.4709 14.664C60.0309 14.664 60.5669 14.528 61.0789 14.256C61.5909 13.984 61.9429 13.616 62.1349 13.152L65.3989 14.064C64.9029 15.056 64.1269 15.864 63.0709 16.488C62.0309 17.112 60.7909 17.424 59.3509 17.424ZM56.5669 9.72H62.0389C61.9589 8.92 61.6629 8.288 61.1509 7.824C60.6549 7.344 60.0389 7.104 59.3029 7.104C58.5669 7.104 57.9429 7.344 57.4309 7.824C56.9349 8.304 56.6469 8.936 56.5669 9.72Z" fill="white"/>
<path d="M68.4626 17.184V0.144H72.3986V17.184H68.4626Z" fill="white"/>
<path d="M87.9699 17.184H84.1299V10.104C84.1299 9.272 83.9699 8.672 83.6499 8.304C83.3459 7.92 82.9379 7.728 82.4259 7.728C81.8979 7.728 81.3619 7.936 80.8179 8.352C80.2739 8.768 79.8899 9.304 79.6659 9.96V17.184H75.8259V4.584H79.2819V6.696C79.7459 5.96 80.4019 5.384 81.2499 4.968C82.0979 4.552 83.0739 4.344 84.1779 4.344C84.9939 4.344 85.6499 4.496 86.1459 4.8C86.6579 5.088 87.0419 5.472 87.2979 5.952C87.5699 6.416 87.7459 6.928 87.8259 7.488C87.9219 8.048 87.9699 8.592 87.9699 9.12V17.184Z" fill="white"/>
<path d="M101.444 5.136C101.396 5.072 101.228 4.952 100.939 4.776C100.651 4.6 100.292 4.416 99.8595 4.224C99.4275 4.016 98.9555 3.848 98.4435 3.72C97.9315 3.576 97.4195 3.504 96.9075 3.504C95.4995 3.504 94.7955 3.976 94.7955 4.92C94.7955 5.496 95.0995 5.904 95.7075 6.144C96.3315 6.384 97.2195 6.672 98.3715 7.008C99.4595 7.312 100.396 7.664 101.18 8.064C101.98 8.448 102.596 8.968 103.028 9.624C103.46 10.264 103.675 11.112 103.675 12.168C103.675 13.128 103.499 13.944 103.147 14.616C102.796 15.272 102.316 15.808 101.708 16.224C101.1 16.624 100.411 16.92 99.6435 17.112C98.8915 17.288 98.1075 17.376 97.2915 17.376C96.0275 17.376 94.7475 17.192 93.4515 16.824C92.1555 16.44 91.0115 15.92 90.0195 15.264L91.7475 11.832C91.8115 11.912 92.0195 12.064 92.3715 12.288C92.7235 12.496 93.1635 12.72 93.6915 12.96C94.2195 13.2 94.7955 13.408 95.4195 13.584C96.0595 13.744 96.7075 13.824 97.3635 13.824C98.7555 13.824 99.4515 13.4 99.4515 12.552C99.4515 12.12 99.2675 11.784 98.8995 11.544C98.5475 11.288 98.0595 11.072 97.4355 10.896C96.8115 10.704 96.1075 10.488 95.3235 10.248C93.7555 9.768 92.5955 9.184 91.8435 8.496C91.1075 7.808 90.7395 6.824 90.7395 5.544C90.7395 4.344 91.0195 3.336 91.5795 2.52C92.1555 1.688 92.9235 1.064 93.8835 0.648C94.8435 0.216 95.8915 0 97.0275 0C98.2275 0 99.3635 0.208 100.436 0.623999C101.507 1.024 102.42 1.44 103.172 1.872L101.444 5.136Z" fill="white"/>
<path d="M105.851 19.08C106.507 19.288 107.059 19.392 107.507 19.392C107.955 19.392 108.307 19.232 108.563 18.912C108.835 18.592 109.075 18.016 109.283 17.184L104.483 4.584H108.443L111.371 13.248L113.867 4.584H117.491L112.691 19.224C112.355 20.264 111.747 21.104 110.867 21.744C110.003 22.4 108.987 22.728 107.819 22.728C107.147 22.728 106.491 22.608 105.851 22.368V19.08Z" fill="white"/>
<path d="M123.996 17.424C122.908 17.424 121.852 17.248 120.828 16.896C119.82 16.528 118.964 16.008 118.26 15.336L119.58 12.912C121.132 14.048 122.564 14.616 123.876 14.616C124.372 14.616 124.756 14.536 125.028 14.376C125.3 14.216 125.436 13.968 125.436 13.632C125.436 13.28 125.252 13.032 124.884 12.888C124.516 12.728 123.972 12.544 123.252 12.336C122.292 12.016 121.492 11.704 120.852 11.4C120.212 11.096 119.732 10.728 119.412 10.296C119.092 9.864 118.932 9.288 118.932 8.568C118.932 7.304 119.404 6.288 120.348 5.52C121.292 4.736 122.572 4.344 124.188 4.344C125.052 4.344 125.892 4.48 126.708 4.752C127.54 5.024 128.316 5.48 129.036 6.12L127.548 8.52C126.828 8.024 126.188 7.664 125.628 7.44C125.068 7.216 124.524 7.104 123.996 7.104C123.58 7.104 123.228 7.184 122.94 7.344C122.652 7.488 122.508 7.744 122.508 8.112C122.508 8.464 122.668 8.728 122.988 8.904C123.308 9.064 123.804 9.24 124.476 9.432C125.5 9.736 126.356 10.048 127.044 10.368C127.748 10.672 128.268 11.056 128.604 11.52C128.956 11.968 129.132 12.568 129.132 13.32C129.132 14.6 128.668 15.608 127.74 16.344C126.812 17.064 125.564 17.424 123.996 17.424Z" fill="white"/>
<path d="M139.648 16.512C139.12 16.736 138.512 16.944 137.824 17.136C137.152 17.328 136.472 17.424 135.784 17.424C135.144 17.424 134.56 17.32 134.032 17.112C133.504 16.888 133.08 16.528 132.76 16.032C132.44 15.536 132.28 14.88 132.28 14.064V7.488H130.672V4.584H132.28V0.576H136.12V4.584H138.688V7.488H136.12V12.744C136.12 13.16 136.224 13.464 136.432 13.656C136.64 13.832 136.904 13.92 137.224 13.92C137.512 13.92 137.808 13.872 138.112 13.776C138.416 13.68 138.68 13.576 138.904 13.464L139.648 16.512Z" fill="white"/>
<path d="M147.508 17.424C146.084 17.424 144.868 17.128 143.86 16.536C142.852 15.944 142.076 15.16 141.532 14.184C141.004 13.208 140.74 12.152 140.74 11.016C140.74 9.8 141.004 8.688 141.532 7.68C142.06 6.672 142.828 5.864 143.836 5.256C144.844 4.648 146.068 4.344 147.508 4.344C148.932 4.344 150.148 4.648 151.156 5.256C152.164 5.864 152.924 6.664 153.436 7.656C153.964 8.648 154.228 9.712 154.228 10.848C154.228 11.312 154.196 11.72 154.132 12.072H144.82C144.884 12.92 145.188 13.568 145.732 14.016C146.292 14.448 146.924 14.664 147.628 14.664C148.188 14.664 148.724 14.528 149.236 14.256C149.748 13.984 150.1 13.616 150.292 13.152L153.556 14.064C153.06 15.056 152.284 15.864 151.228 16.488C150.188 17.112 148.948 17.424 147.508 17.424ZM144.724 9.72H150.196C150.116 8.92 149.82 8.288 149.308 7.824C148.812 7.344 148.196 7.104 147.46 7.104C146.724 7.104 146.1 7.344 145.588 7.824C145.092 8.304 144.804 8.936 144.724 9.72Z" fill="white"/>
<path d="M176.368 17.184H172.528V10.104C172.528 9.288 172.376 8.688 172.072 8.304C171.768 7.92 171.376 7.728 170.896 7.728C170.384 7.728 169.88 7.936 169.384 8.352C168.888 8.768 168.536 9.304 168.328 9.96V17.184H164.488V10.104C164.488 9.272 164.336 8.672 164.032 8.304C163.728 7.92 163.336 7.728 162.856 7.728C162.344 7.728 161.84 7.936 161.344 8.352C160.864 8.768 160.512 9.304 160.288 9.96V17.184H156.448V4.584H159.904V6.696C160.368 5.944 161 5.368 161.8 4.968C162.6 4.552 163.52 4.344 164.56 4.344C165.6 4.344 166.4 4.592 166.96 5.088C167.52 5.568 167.88 6.136 168.04 6.792C168.52 6.024 169.152 5.424 169.936 4.992C170.736 4.56 171.632 4.344 172.624 4.344C173.424 4.344 174.064 4.496 174.544 4.8C175.04 5.088 175.416 5.472 175.672 5.952C175.944 6.432 176.128 6.952 176.224 7.512C176.32 8.056 176.368 8.592 176.368 9.12V17.184Z" fill="white"/>
<path d="M0 36.784C0 36.134 0.11 35.499 0.33 34.879C0.56 34.249 0.89 33.679 1.32 33.169C1.76 32.649 2.295 32.239 2.925 31.939C3.555 31.629 4.27 31.474 5.07 31.474C6.02 31.474 6.835 31.694 7.515 32.134C8.195 32.564 8.7 33.119 9.03 33.799L7.965 34.489C7.755 34.039 7.485 33.684 7.155 33.424C6.835 33.154 6.485 32.964 6.105 32.854C5.735 32.744 5.37 32.689 5.01 32.689C4.42 32.689 3.895 32.809 3.435 33.049C2.985 33.289 2.605 33.609 2.295 34.009C1.985 34.409 1.75 34.859 1.59 35.359C1.44 35.849 1.365 36.344 1.365 36.844C1.365 37.394 1.455 37.924 1.635 38.434C1.825 38.944 2.085 39.394 2.415 39.784C2.745 40.174 3.135 40.484 3.585 40.714C4.035 40.944 4.525 41.059 5.055 41.059C5.425 41.059 5.805 40.994 6.195 40.864C6.585 40.734 6.95 40.534 7.29 40.264C7.63 39.984 7.9 39.624 8.1 39.184L9.225 39.799C9.005 40.329 8.665 40.779 8.205 41.149C7.745 41.519 7.23 41.799 6.66 41.989C6.1 42.179 5.545 42.274 4.995 42.274C4.265 42.274 3.595 42.119 2.985 41.809C2.375 41.489 1.845 41.069 1.395 40.549C0.955 40.019 0.61 39.429 0.36 38.779C0.12 38.119 0 37.454 0 36.784Z" fill="white"/>
<path d="M11.2896 42.184V31.534H12.6396V40.309L18.8046 31.534H20.0646V42.184H18.7146V33.574L12.6246 42.184H11.2896Z" fill="white"/>
<path d="M30.0343 42.184V32.734H26.0593L25.9993 34.849C25.9493 36.299 25.8393 37.504 25.6693 38.464C25.5093 39.414 25.2743 40.164 24.9643 40.714C24.6643 41.254 24.2893 41.639 23.8393 41.869C23.3893 42.099 22.8543 42.214 22.2343 42.214V41.029C22.6143 41.029 22.9493 40.934 23.2393 40.744C23.5293 40.554 23.7743 40.224 23.9743 39.754C24.1843 39.274 24.3493 38.609 24.4693 37.759C24.5893 36.909 24.6693 35.824 24.7093 34.504L24.7993 31.534H31.3843V42.184H30.0343Z" fill="white"/>
<path d="M37.4814 31.534H38.6214L42.9714 42.184H41.5314L40.2714 39.064H35.8014L34.5564 42.184H33.1164L37.4814 31.534ZM39.9714 38.014L38.0514 33.094L36.0714 38.014H39.9714Z" fill="white"/>
<path d="M56.4929 39.439C56.4929 39.989 56.3529 40.469 56.0729 40.879C55.7929 41.289 55.4129 41.609 54.9329 41.839C54.4629 42.069 53.9429 42.184 53.3729 42.184H48.3179V31.534H53.6129C54.1129 31.534 54.5429 31.669 54.9029 31.939C55.2729 32.199 55.5529 32.539 55.7429 32.959C55.9429 33.369 56.0429 33.799 56.0429 34.249C56.0429 34.769 55.9079 35.259 55.6379 35.719C55.3779 36.169 55.0029 36.504 54.5129 36.724C55.1229 36.904 55.6029 37.239 55.9529 37.729C56.3129 38.209 56.4929 38.779 56.4929 39.439ZM49.6679 32.704V36.259H53.0579C53.5279 36.259 53.9179 36.089 54.2279 35.749C54.5479 35.399 54.7079 34.979 54.7079 34.489C54.7079 33.989 54.5579 33.569 54.2579 33.229C53.9679 32.879 53.5979 32.704 53.1479 32.704H49.6679ZM55.1279 39.199C55.1279 38.869 55.0529 38.564 54.9029 38.284C54.7629 38.004 54.5679 37.779 54.3179 37.609C54.0779 37.439 53.7979 37.354 53.4779 37.354H49.6679V41.014H53.3729C53.7029 41.014 53.9979 40.929 54.2579 40.759C54.5279 40.589 54.7379 40.369 54.8879 40.099C55.0479 39.819 55.1279 39.519 55.1279 39.199Z" fill="white"/>
<path d="M62.0854 36.784C62.0854 36.134 62.1954 35.499 62.4154 34.879C62.6454 34.249 62.9753 33.679 63.4053 33.169C63.8453 32.649 64.3804 32.239 65.0104 31.939C65.6404 31.629 66.3553 31.474 67.1553 31.474C68.1053 31.474 68.9203 31.694 69.6003 32.134C70.2803 32.564 70.7853 33.119 71.1153 33.799L70.0504 34.489C69.8404 34.039 69.5704 33.684 69.2403 33.424C68.9203 33.154 68.5704 32.964 68.1904 32.854C67.8204 32.744 67.4554 32.689 67.0954 32.689C66.5054 32.689 65.9803 32.809 65.5203 33.049C65.0704 33.289 64.6903 33.609 64.3803 34.009C64.0704 34.409 63.8354 34.859 63.6754 35.359C63.5253 35.849 63.4504 36.344 63.4504 36.844C63.4504 37.394 63.5403 37.924 63.7203 38.434C63.9103 38.944 64.1703 39.394 64.5004 39.784C64.8304 40.174 65.2204 40.484 65.6703 40.714C66.1203 40.944 66.6104 41.059 67.1404 41.059C67.5104 41.059 67.8904 40.994 68.2803 40.864C68.6703 40.734 69.0354 40.534 69.3754 40.264C69.7153 39.984 69.9854 39.624 70.1853 39.184L71.3103 39.799C71.0903 40.329 70.7504 40.779 70.2904 41.149C69.8304 41.519 69.3154 41.799 68.7454 41.989C68.1854 42.179 67.6304 42.274 67.0804 42.274C66.3503 42.274 65.6804 42.119 65.0704 41.809C64.4604 41.489 63.9304 41.069 63.4804 40.549C63.0404 40.019 62.6954 39.429 62.4454 38.779C62.2053 38.119 62.0854 37.454 62.0854 36.784Z" fill="white"/>
<path d="M73.375 42.184V31.534H74.725V40.309L80.89 31.534H82.15V42.184H80.8V33.574L74.71 42.184H73.375Z" fill="white"/>
<path d="M84.3797 36.784C84.3797 36.134 84.4897 35.499 84.7097 34.879C84.9397 34.249 85.2697 33.679 85.6997 33.169C86.1397 32.649 86.6747 32.239 87.3047 31.939C87.9347 31.629 88.6497 31.474 89.4497 31.474C90.3997 31.474 91.2147 31.694 91.8947 32.134C92.5747 32.564 93.0797 33.119 93.4097 33.799L92.3447 34.489C92.1347 34.039 91.8647 33.684 91.5347 33.424C91.2147 33.154 90.8647 32.964 90.4847 32.854C90.1147 32.744 89.7497 32.689 89.3897 32.689C88.7997 32.689 88.2747 32.809 87.8147 33.049C87.3647 33.289 86.9847 33.609 86.6747 34.009C86.3647 34.409 86.1297 34.859 85.9697 35.359C85.8197 35.849 85.7447 36.344 85.7447 36.844C85.7447 37.394 85.8347 37.924 86.0147 38.434C86.2047 38.944 86.4647 39.394 86.7947 39.784C87.1247 40.174 87.5147 40.484 87.9647 40.714C88.4147 40.944 88.9047 41.059 89.4347 41.059C89.8047 41.059 90.1847 40.994 90.5747 40.864C90.9647 40.734 91.3297 40.534 91.6697 40.264C92.0097 39.984 92.2797 39.624 92.4797 39.184L93.6047 39.799C93.3847 40.329 93.0447 40.779 92.5847 41.149C92.1247 41.519 91.6097 41.799 91.0397 41.989C90.4797 42.179 89.9247 42.274 89.3747 42.274C88.6447 42.274 87.9747 42.119 87.3647 41.809C86.7547 41.489 86.2247 41.069 85.7747 40.549C85.3347 40.019 84.9897 39.429 84.7397 38.779C84.4997 38.119 84.3797 37.454 84.3797 36.784Z" fill="white"/>
<path d="M103.274 32.734H99.5993V42.184H98.2493V32.734H94.5743V31.534H103.274V32.734Z" fill="white"/>
<path d="M112.338 40.984V42.184H105.108V31.534H112.203V32.734H106.458V36.184H111.453V37.309H106.458V40.984H112.338Z" fill="white"/>
<path d="M123.7 42.184V34.054L120.19 40.309H119.365L115.84 34.054V42.184H114.49V31.534H115.915L119.77 38.449L123.64 31.534H125.05V42.184H123.7Z" fill="white"/>
<path d="M135.131 40.984V42.184H127.901V31.534H134.996V32.734H129.251V36.184H134.246V37.309H129.251V40.984H135.131Z" fill="white"/>
</svg>
