<svg width="243" height="59" viewBox="0 0 243 59" fill="none" xmlns="http://www.w3.org/2000/svg">
<path d="M1.44016 23.983V0.200974H17.3521V5.02436H6.85417V10.1492H15.5034V14.6042H6.85417V23.983H1.44016Z" fill="white"/>
<path d="M27.72 24.3179C25.7392 24.3179 24.0556 23.8936 22.6691 23.0451C21.3046 22.1965 20.2592 21.08 19.5329 19.6955C18.8067 18.311 18.4435 16.8149 18.4435 15.2071C18.4435 13.577 18.8067 12.0696 19.5329 10.6851C20.2592 9.30066 21.3156 8.18413 22.7021 7.33557C24.0886 6.48701 25.7612 6.06273 27.72 6.06273C29.6787 6.06273 31.3513 6.48701 32.7378 7.33557C34.1243 8.18413 35.1807 9.30066 35.907 10.6851C36.6333 12.0696 36.9964 13.577 36.9964 15.2071C36.9964 16.8149 36.6333 18.311 35.907 19.6955C35.1807 21.08 34.1243 22.1965 32.7378 23.0451C31.3513 23.8936 29.6787 24.3179 27.72 24.3179ZM23.8575 15.2071C23.8575 16.5692 24.2207 17.6746 24.9469 18.5232C25.6952 19.3717 26.6196 19.796 27.72 19.796C28.7984 19.796 29.7007 19.3717 30.427 18.5232C31.1752 17.6746 31.5494 16.5692 31.5494 15.2071C31.5494 13.8449 31.1752 12.7396 30.427 11.891C29.7007 11.0424 28.7984 10.6182 27.72 10.6182C26.6196 10.6182 25.6952 11.0424 24.9469 11.891C24.2207 12.7396 23.8575 13.8449 23.8575 15.2071Z" fill="white"/>
<path d="M51.2693 10.9866C49.9928 11.0089 48.8374 11.2211 47.803 11.623C46.7686 12.025 46.0203 12.6279 45.5582 13.4318V23.983H40.2762V6.39769H45.129V9.94824C45.7232 8.76472 46.4935 7.83801 47.4399 7.16809C48.3862 6.49818 49.3766 6.15206 50.411 6.12972C50.8511 6.12972 51.1372 6.14089 51.2693 6.16322V10.9866Z" fill="white"/>
<path d="M62.3114 24.3179C60.3746 24.3179 58.702 23.8936 57.2935 23.0451C55.907 22.1965 54.8396 21.08 54.0913 19.6955C53.365 18.311 53.0019 16.8037 53.0019 15.1736C53.0019 13.5658 53.365 12.0696 54.0913 10.6851C54.8396 9.30066 55.907 8.18413 57.2935 7.33557C58.68 6.48701 60.3526 6.06273 62.3114 6.06273C64.2921 6.06273 65.9647 6.49818 67.3292 7.36907C68.7157 8.21763 69.7501 9.33415 70.4324 10.7186L65.2825 12.2929C64.6002 11.1764 63.5988 10.6182 62.2784 10.6182C61.2 10.6182 60.2866 11.0313 59.5383 11.8575C58.7901 12.6837 58.4159 13.7891 58.4159 15.1736C58.4159 16.5581 58.7901 17.6746 59.5383 18.5232C60.2866 19.3717 61.2 19.796 62.2784 19.796C62.9386 19.796 63.5438 19.6397 64.094 19.3271C64.6442 18.9921 65.0514 18.5678 65.3155 18.0542L70.4654 19.662C69.8271 21.0242 68.8038 22.1407 67.3952 23.0116C66.0087 23.8825 64.3141 24.3179 62.3114 24.3179Z" fill="white"/>
<path d="M81.6377 24.3179C79.679 24.3179 78.0064 23.9048 76.6198 23.0786C75.2333 22.2524 74.1659 21.1582 73.4177 19.796C72.6914 18.4338 72.3283 16.96 72.3283 15.3746C72.3283 13.6774 72.6914 12.1255 73.4177 10.7186C74.1439 9.31182 75.2003 8.18413 76.5868 7.33557C77.9734 6.48701 79.657 6.06273 81.6377 6.06273C83.5964 6.06273 85.2691 6.48701 86.6556 7.33557C88.0421 8.18413 89.0875 9.30066 89.7917 10.6851C90.518 12.0696 90.8811 13.5546 90.8811 15.1401C90.8811 15.7877 90.8371 16.3571 90.7491 16.8484H77.9403C78.0284 18.0319 78.4465 18.9363 79.1948 19.5615C79.9651 20.1645 80.8344 20.4659 81.8028 20.4659C82.5731 20.4659 83.3103 20.2761 84.0146 19.8965C84.7188 19.5169 85.203 19.0033 85.4671 18.3557L89.9568 19.6285C89.2745 21.013 88.2071 22.1407 86.7546 23.0116C85.3241 23.8825 83.6184 24.3179 81.6377 24.3179ZM77.8083 13.5658H85.3351C85.225 12.4493 84.8179 11.5672 84.1136 10.9196C83.4314 10.2497 82.5841 9.91475 81.5717 9.91475C80.5593 9.91475 79.701 10.2497 78.9967 10.9196C78.3145 11.5895 77.9183 12.4716 77.8083 13.5658Z" fill="white"/>
<path d="M94.171 23.983V0.200974H99.585V23.983H94.171Z" fill="white"/>
<path d="M121.004 23.983H115.722V14.1017C115.722 12.9405 115.501 12.1031 115.061 11.5895C114.643 11.0536 114.082 10.7856 113.378 10.7856C112.651 10.7856 111.914 11.0759 111.166 11.6565C110.418 12.2371 109.889 12.9852 109.581 13.9007V23.983H104.299V6.39769H109.053V9.34532C109.691 8.31811 110.594 7.51422 111.76 6.93362C112.927 6.35303 114.269 6.06273 115.788 6.06273C116.91 6.06273 117.812 6.27487 118.495 6.69915C119.199 7.1011 119.727 7.63703 120.079 8.30695C120.453 8.95453 120.695 9.66911 120.805 10.4507C120.937 11.2322 121.004 11.9915 121.004 12.7284V23.983Z" fill="white"/>
<path d="M139.537 7.16809C139.471 7.07877 139.239 6.91129 138.843 6.66566C138.447 6.42002 137.952 6.16322 137.358 5.89525C136.764 5.60496 136.114 5.37049 135.41 5.19184C134.706 4.99087 134.001 4.89038 133.297 4.89038C131.36 4.89038 130.392 5.54913 130.392 6.86663C130.392 7.67053 130.81 8.23996 131.647 8.57492C132.505 8.90987 133.726 9.31182 135.311 9.78076C136.808 10.205 138.095 10.6963 139.173 11.2546C140.274 11.7905 141.121 12.5163 141.715 13.4318C142.31 14.325 142.607 15.5085 142.607 16.9824C142.607 18.3222 142.365 19.461 141.88 20.3989C141.396 21.3145 140.736 22.0625 139.9 22.6431C139.063 23.2014 138.117 23.6145 137.061 23.8825C136.026 24.1281 134.948 24.2509 133.825 24.2509C132.087 24.2509 130.326 23.9941 128.543 23.4805C126.761 22.9446 125.187 22.2189 123.823 21.3033L126.2 16.5134C126.288 16.6251 126.574 16.8372 127.058 17.1498C127.542 17.4401 128.147 17.7528 128.874 18.0877C129.6 18.4227 130.392 18.713 131.25 18.9586C132.131 19.1819 133.022 19.2936 133.924 19.2936C135.839 19.2936 136.797 18.7018 136.797 17.5183C136.797 16.9154 136.543 16.4464 136.037 16.1115C135.553 15.7542 134.882 15.4527 134.023 15.2071C133.165 14.9391 132.197 14.6376 131.118 14.3027C128.962 13.6328 127.366 12.8177 126.332 11.8575C125.319 10.8973 124.813 9.52396 124.813 7.73752C124.813 6.06273 125.198 4.65591 125.968 3.51706C126.761 2.35587 127.817 1.48498 129.138 0.904386C130.458 0.301462 131.9 0 133.462 0C135.113 0 136.675 0.290296 138.15 0.870889C139.625 1.42915 140.879 2.00975 141.913 2.61267L139.537 7.16809Z" fill="white"/>
<path d="M145.599 26.6291C146.501 26.9194 147.26 27.0646 147.876 27.0646C148.493 27.0646 148.977 26.8413 149.329 26.3947C149.703 25.9481 150.033 25.1442 150.319 23.983L143.717 6.39769H149.164L153.191 18.4897L156.625 6.39769H161.61L155.007 26.8301C154.545 28.2816 153.709 29.4539 152.498 30.3472C151.31 31.2627 149.912 31.7205 148.306 31.7205C147.381 31.7205 146.479 31.553 145.599 31.2181V26.6291Z" fill="white"/>
<path d="M170.558 24.3179C169.061 24.3179 167.609 24.0723 166.2 23.581C164.814 23.0674 163.636 22.3417 162.668 21.4038L164.484 18.0207C166.618 19.6062 168.588 20.3989 170.393 20.3989C171.075 20.3989 171.603 20.2873 171.977 20.064C172.352 19.8407 172.539 19.4945 172.539 19.0256C172.539 18.5343 172.286 18.1882 171.779 17.9872C171.273 17.7639 170.525 17.5071 169.535 17.2168C168.214 16.7702 167.114 16.3348 166.233 15.9105C165.353 15.4862 164.693 14.9726 164.253 14.3697C163.812 13.7668 163.592 12.9629 163.592 11.958C163.592 10.1939 164.242 8.77589 165.54 7.70402C166.839 6.60983 168.599 6.06273 170.822 6.06273C172.011 6.06273 173.166 6.25254 174.288 6.63216C175.433 7.01178 176.5 7.6482 177.491 8.54142L175.444 11.891C174.453 11.1987 173.573 10.6963 172.803 10.3837C172.033 10.0711 171.284 9.91475 170.558 9.91475C169.986 9.91475 169.502 10.0264 169.105 10.2497C168.709 10.4507 168.511 10.808 168.511 11.3216C168.511 11.8128 168.731 12.1813 169.171 12.4269C169.612 12.6502 170.294 12.8959 171.218 13.1638C172.627 13.5881 173.804 14.0236 174.751 14.4702C175.719 14.8944 176.434 15.4304 176.896 16.078C177.38 16.7032 177.623 17.5406 177.623 18.5901C177.623 20.3766 176.984 21.7834 175.708 22.8106C174.431 23.8155 172.715 24.3179 170.558 24.3179Z" fill="white"/>
<path d="M192.087 23.0451C191.361 23.3577 190.525 23.648 189.578 23.916C188.654 24.1839 187.719 24.3179 186.772 24.3179C185.892 24.3179 185.089 24.1728 184.363 23.8825C183.636 23.5699 183.053 23.0674 182.613 22.3752C182.173 21.6829 181.953 20.7674 181.953 19.6285V10.4507H179.741V6.39769H181.953V0.803898H187.235V6.39769H190.767V10.4507H187.235V17.7863C187.235 18.3668 187.378 18.7911 187.664 19.0591C187.95 19.3047 188.313 19.4275 188.753 19.4275C189.149 19.4275 189.556 19.3606 189.975 19.2266C190.393 19.0926 190.756 18.9474 191.064 18.7911L192.087 23.0451Z" fill="white"/>
<path d="M202.898 24.3179C200.94 24.3179 199.267 23.9048 197.88 23.0786C196.494 22.2524 195.427 21.1582 194.678 19.796C193.952 18.4338 193.589 16.96 193.589 15.3746C193.589 13.6774 193.952 12.1255 194.678 10.7186C195.405 9.31182 196.461 8.18413 197.847 7.33557C199.234 6.48701 200.918 6.06273 202.898 6.06273C204.857 6.06273 206.53 6.48701 207.916 7.33557C209.303 8.18413 210.348 9.30066 211.052 10.6851C211.779 12.0696 212.142 13.5546 212.142 15.1401C212.142 15.7877 212.098 16.3571 212.01 16.8484H199.201C199.289 18.0319 199.707 18.9363 200.455 19.5615C201.226 20.1645 202.095 20.4659 203.063 20.4659C203.834 20.4659 204.571 20.2761 205.275 19.8965C205.979 19.5169 206.464 19.0033 206.728 18.3557L211.217 19.6285C210.535 21.013 209.468 22.1407 208.015 23.0116C206.585 23.8825 204.879 24.3179 202.898 24.3179ZM199.069 13.5658H206.596C206.486 12.4493 206.079 11.5672 205.374 10.9196C204.692 10.2497 203.845 9.91475 202.832 9.91475C201.82 9.91475 200.962 10.2497 200.257 10.9196C199.575 11.5895 199.179 12.4716 199.069 13.5658Z" fill="white"/>
<path d="M242.596 23.983H237.314V14.1017C237.314 12.9629 237.105 12.1255 236.687 11.5895C236.269 11.0536 235.73 10.7856 235.069 10.7856C234.365 10.7856 233.672 11.0759 232.99 11.6565C232.307 12.2371 231.823 12.9852 231.537 13.9007V23.983H226.255V14.1017C226.255 12.9405 226.046 12.1031 225.628 11.5895C225.21 11.0536 224.67 10.7856 224.01 10.7856C223.306 10.7856 222.613 11.0759 221.93 11.6565C221.27 12.2371 220.786 12.9852 220.478 13.9007V23.983H215.196V6.39769H219.95V9.34532C220.588 8.29578 221.457 7.49189 222.558 6.93362C223.658 6.35303 224.924 6.06273 226.354 6.06273C227.785 6.06273 228.885 6.40886 229.655 7.1011C230.426 7.77102 230.921 8.56375 231.141 9.4793C231.801 8.40744 232.67 7.57004 233.749 6.96712C234.849 6.3642 236.082 6.06273 237.446 6.06273C238.547 6.06273 239.427 6.27487 240.087 6.69915C240.769 7.1011 241.287 7.63703 241.639 8.30695C242.013 8.97686 242.266 9.70261 242.398 10.4842C242.53 11.2434 242.596 11.9915 242.596 12.7284V23.983Z" fill="white"/>
<path d="M0 51.3378C0 50.4307 0.151306 49.5444 0.453918 48.6791C0.770286 47.7999 1.2242 47.0043 1.81567 46.2925C2.4209 45.5668 3.1568 44.9946 4.02337 44.5759C4.88994 44.1432 5.87343 43.9269 6.97383 43.9269C8.28057 43.9269 9.40161 44.2339 10.337 44.848C11.2723 45.4482 11.9669 46.2228 12.4209 47.1718L10.9559 48.1348C10.6671 47.5068 10.2957 47.0113 9.84177 46.6484C9.40161 46.2716 8.92018 46.0064 8.39749 45.8529C7.88855 45.6994 7.38649 45.6226 6.8913 45.6226C6.07975 45.6226 5.35761 45.7901 4.72488 46.1251C4.1059 46.46 3.5832 46.9066 3.1568 47.4649C2.73039 48.0232 2.40714 48.6512 2.18706 49.349C1.98073 50.0329 1.87757 50.7238 1.87757 51.4216C1.87757 52.1892 2.00137 52.9289 2.24896 53.6407C2.51031 54.3525 2.86794 54.9805 3.32186 55.5248C3.77577 56.0691 4.31222 56.5018 4.9312 56.8228C5.55018 57.1438 6.22418 57.3043 6.9532 57.3043C7.46214 57.3043 7.98483 57.2136 8.52128 57.0321C9.05773 56.8507 9.55979 56.5716 10.0275 56.1947C10.4951 55.8039 10.8665 55.3015 11.1416 54.6874L12.6891 55.5457C12.3865 56.2854 11.9188 56.9135 11.2861 57.4299C10.6533 57.9463 9.94494 58.3371 9.1609 58.6022C8.39061 58.8674 7.6272 59 6.87067 59C5.86655 59 4.94496 58.7837 4.1059 58.351C3.26684 57.9044 2.53782 57.3182 1.91884 56.5925C1.31361 55.8528 0.839061 55.0294 0.495184 54.1222C0.165061 53.201 0 52.2729 0 51.3378Z" fill="white"/>
<path d="M15.529 58.8744V44.0106H17.3859V56.2575L25.8659 44.0106H27.5991V58.8744H25.7421V46.8578L17.3653 58.8744H15.529Z" fill="white"/>
<path d="M41.3125 58.8744V45.6854H35.8449L35.7623 48.6372C35.6936 50.6609 35.5423 52.3427 35.3084 53.6825C35.0883 55.0084 34.7651 56.0552 34.3387 56.8228C33.926 57.5764 33.4102 58.1138 32.7912 58.4348C32.1723 58.7558 31.4364 58.9163 30.5835 58.9163V57.2624C31.1062 57.2624 31.567 57.1298 31.9659 56.8646C32.3648 56.5995 32.7018 56.1389 32.9769 55.4829C33.2658 54.813 33.4927 53.8849 33.6578 52.6986C33.8229 51.5123 33.9329 49.998 33.9879 48.1557L34.1117 44.0106H43.1695V58.8744H41.3125Z" fill="white"/>
<path d="M51.556 44.0106H53.1241L59.1075 58.8744H57.1268L55.3937 54.5199H49.2451L47.5326 58.8744H45.5519L51.556 44.0106ZM54.981 53.0545L52.34 46.1879L49.6165 53.0545H54.981Z" fill="white"/>
<path d="M77.7066 55.0433C77.7066 55.8109 77.514 56.4808 77.1289 57.0531C76.7437 57.6253 76.221 58.0719 75.5608 58.3929C74.9143 58.7139 74.199 58.8744 73.415 58.8744H66.4618V44.0106H73.7451C74.4329 44.0106 75.0243 44.1991 75.5195 44.5759C76.0285 44.9388 76.4136 45.4133 76.6749 45.9995C76.95 46.5717 77.0876 47.1718 77.0876 47.7999C77.0876 48.5256 76.9019 49.2095 76.5305 49.8515C76.1729 50.4795 75.6571 50.9471 74.9831 51.2541C75.8221 51.5053 76.4824 51.9729 76.9638 52.6567C77.459 53.3267 77.7066 54.1222 77.7066 55.0433ZM68.3187 45.6436V50.6051H72.9817C73.6282 50.6051 74.1646 50.3679 74.591 49.8933C75.0312 49.4049 75.2513 48.8187 75.2513 48.1348C75.2513 47.437 75.045 46.8508 74.6323 46.3763C74.2334 45.8878 73.7245 45.6436 73.1055 45.6436H68.3187ZM75.829 54.7084C75.829 54.2478 75.7258 53.8221 75.5195 53.4313C75.3269 53.0405 75.0587 52.7265 74.7148 52.4893C74.3847 52.252 73.9996 52.1334 73.5594 52.1334H68.3187V57.2415H73.415C73.8689 57.2415 74.2747 57.1228 74.6323 56.8856C75.0037 56.6483 75.2925 56.3413 75.4989 55.9644C75.719 55.5737 75.829 55.155 75.829 54.7084Z" fill="white"/>
<path d="M85.399 51.3378C85.399 50.4307 85.5503 49.5444 85.8529 48.6791C86.1693 47.7999 86.6232 47.0043 87.2147 46.2925C87.8199 45.5668 88.5558 44.9946 89.4224 44.5759C90.2889 44.1432 91.2724 43.9269 92.3728 43.9269C93.6796 43.9269 94.8006 44.2339 95.736 44.848C96.6713 45.4482 97.3659 46.2228 97.8199 47.1718L96.3549 48.1348C96.0661 47.5068 95.6947 47.0113 95.2408 46.6484C94.8006 46.2716 94.3192 46.0064 93.7965 45.8529C93.2876 45.6994 92.7855 45.6226 92.2903 45.6226C91.4788 45.6226 90.7566 45.7901 90.1239 46.1251C89.5049 46.46 88.9822 46.9066 88.5558 47.4649C88.1294 48.0232 87.8062 48.6512 87.5861 49.349C87.3797 50.0329 87.2766 50.7238 87.2766 51.4216C87.2766 52.1892 87.4004 52.9289 87.648 53.6407C87.9093 54.3525 88.2669 54.9805 88.7209 55.5248C89.1748 56.0691 89.7112 56.5018 90.3302 56.8228C90.9492 57.1438 91.6232 57.3043 92.3522 57.3043C92.8611 57.3043 93.3838 57.2136 93.9203 57.0321C94.4567 56.8507 94.9588 56.5716 95.4265 56.1947C95.8941 55.8039 96.2655 55.3015 96.5406 54.6874L98.0881 55.5457C97.7855 56.2854 97.3178 56.9135 96.6851 57.4299C96.0523 57.9463 95.3439 58.3371 94.5599 58.6022C93.7896 58.8674 93.0262 59 92.2697 59C91.2656 59 90.344 58.7837 89.5049 58.351C88.6658 57.9044 87.9368 57.3182 87.3178 56.5925C86.7126 55.8528 86.2381 55.0294 85.8942 54.1222C85.5641 53.201 85.399 52.2729 85.399 51.3378Z" fill="white"/>
<path d="M100.928 58.8744V44.0106H102.785V56.2575L111.265 44.0106H112.998V58.8744H111.141V46.8578L102.764 58.8744H100.928Z" fill="white"/>
<path d="M116.065 51.3378C116.065 50.4307 116.216 49.5444 116.519 48.6791C116.835 47.7999 117.289 47.0043 117.881 46.2925C118.486 45.5668 119.222 44.9946 120.088 44.5759C120.955 44.1432 121.938 43.9269 123.039 43.9269C124.346 43.9269 125.467 44.2339 126.402 44.848C127.337 45.4482 128.032 46.2228 128.486 47.1718L127.021 48.1348C126.732 47.5068 126.361 47.0113 125.907 46.6484C125.467 46.2716 124.985 46.0064 124.463 45.8529C123.954 45.6994 123.452 45.6226 122.956 45.6226C122.145 45.6226 121.423 45.7901 120.79 46.1251C120.171 46.46 119.648 46.9066 119.222 47.4649C118.795 48.0232 118.472 48.6512 118.252 49.349C118.046 50.0329 117.943 50.7238 117.943 51.4216C117.943 52.1892 118.066 52.9289 118.314 53.6407C118.575 54.3525 118.933 54.9805 119.387 55.5248C119.841 56.0691 120.377 56.5018 120.996 56.8228C121.615 57.1438 122.289 57.3043 123.018 57.3043C123.527 57.3043 124.05 57.2136 124.586 57.0321C125.123 56.8507 125.625 56.5716 126.093 56.1947C126.56 55.8039 126.932 55.3015 127.207 54.6874L128.754 55.5457C128.452 56.2854 127.984 56.9135 127.351 57.4299C126.718 57.9463 126.01 58.3371 125.226 58.6022C124.456 58.8674 123.692 59 122.936 59C121.932 59 121.01 58.7837 120.171 58.351C119.332 57.9044 118.603 57.3182 117.984 56.5925C117.379 55.8528 116.904 55.0294 116.56 54.1222C116.23 53.201 116.065 52.2729 116.065 51.3378Z" fill="white"/>
<path d="M142.055 45.6854H137V58.8744H135.143V45.6854H130.088V44.0106H142.055V45.6854Z" fill="white"/>
<path d="M154.522 57.1996V58.8744H144.577V44.0106H154.337V45.6854H146.434V50.5005H153.305V52.0706H146.434V57.1996H154.522Z" fill="white"/>
<path d="M170.151 58.8744V47.5277L165.323 56.2575H164.188L159.339 47.5277V58.8744H157.482V44.0106H159.442L164.745 53.6616L170.068 44.0106H172.008V58.8744H170.151Z" fill="white"/>
<path d="M185.873 57.1996V58.8744H175.928V44.0106H185.688V45.6854H177.785V50.5005H184.656V52.0706H177.785V57.1996H185.873Z" fill="white"/>
</svg>
