<svg width="177" height="43" viewBox="0 0 177 43" fill="none" xmlns="http://www.w3.org/2000/svg">
<path d="M1.63196 17.184V0.144H13.2V3.6H5.56796V7.272H11.856V10.464H5.56796V17.184H1.63196Z" fill="black"/>
<path d="M20.7375 17.424C19.2975 17.424 18.0735 17.12 17.0655 16.512C16.0735 15.904 15.3135 15.104 14.7855 14.112C14.2575 13.12 13.9935 12.048 13.9935 10.896C13.9935 9.728 14.2575 8.648 14.7855 7.656C15.3135 6.664 16.0815 5.864 17.0895 5.256C18.0975 4.648 19.3135 4.344 20.7375 4.344C22.1615 4.344 23.3775 4.648 24.3855 5.256C25.3935 5.864 26.1615 6.664 26.6895 7.656C27.2175 8.648 27.4815 9.728 27.4815 10.896C27.4815 12.048 27.2175 13.12 26.6895 14.112C26.1615 15.104 25.3935 15.904 24.3855 16.512C23.3775 17.12 22.1615 17.424 20.7375 17.424ZM17.9295 10.896C17.9295 11.872 18.1935 12.664 18.7215 13.272C19.2655 13.88 19.9375 14.184 20.7375 14.184C21.5215 14.184 22.1775 13.88 22.7055 13.272C23.2495 12.664 23.5215 11.872 23.5215 10.896C23.5215 9.92 23.2495 9.128 22.7055 8.52C22.1775 7.912 21.5215 7.608 20.7375 7.608C19.9375 7.608 19.2655 7.912 18.7215 8.52C18.1935 9.128 17.9295 9.92 17.9295 10.896Z" fill="black"/>
<path d="M37.8579 7.872C36.9299 7.888 36.0899 8.04 35.3379 8.328C34.5859 8.616 34.0419 9.048 33.7059 9.624V17.184H29.8659V4.584H33.3939V7.128C33.8259 6.28 34.3859 5.616 35.0739 5.136C35.7619 4.656 36.4819 4.408 37.2339 4.392C37.5539 4.392 37.7619 4.4 37.8579 4.416V7.872Z" fill="black"/>
<path d="M45.8855 17.424C44.4775 17.424 43.2615 17.12 42.2375 16.512C41.2295 15.904 40.4535 15.104 39.9095 14.112C39.3815 13.12 39.1175 12.04 39.1175 10.872C39.1175 9.72 39.3815 8.648 39.9095 7.656C40.4535 6.664 41.2295 5.864 42.2375 5.256C43.2455 4.648 44.4615 4.344 45.8855 4.344C47.3255 4.344 48.5415 4.656 49.5335 5.28C50.5415 5.888 51.2935 6.688 51.7895 7.68L48.0455 8.808C47.5495 8.008 46.8215 7.608 45.8615 7.608C45.0775 7.608 44.4135 7.904 43.8695 8.496C43.3255 9.088 43.0535 9.88 43.0535 10.872C43.0535 11.864 43.3255 12.664 43.8695 13.272C44.4135 13.88 45.0775 14.184 45.8615 14.184C46.3415 14.184 46.7815 14.072 47.1815 13.848C47.5815 13.608 47.8775 13.304 48.0695 12.936L51.8135 14.088C51.3495 15.064 50.6055 15.864 49.5815 16.488C48.5735 17.112 47.3415 17.424 45.8855 17.424Z" fill="black"/>
<path d="M59.9358 17.424C58.5118 17.424 57.2958 17.128 56.2878 16.536C55.2798 15.944 54.5038 15.16 53.9598 14.184C53.4318 13.208 53.1678 12.152 53.1678 11.016C53.1678 9.8 53.4318 8.688 53.9598 7.68C54.4878 6.672 55.2558 5.864 56.2638 5.256C57.2718 4.648 58.4958 4.344 59.9358 4.344C61.3598 4.344 62.5758 4.648 63.5838 5.256C64.5918 5.864 65.3518 6.664 65.8638 7.656C66.3918 8.648 66.6558 9.712 66.6558 10.848C66.6558 11.312 66.6238 11.72 66.5598 12.072H57.2478C57.3118 12.92 57.6158 13.568 58.1598 14.016C58.7198 14.448 59.3518 14.664 60.0558 14.664C60.6158 14.664 61.1518 14.528 61.6638 14.256C62.1758 13.984 62.5278 13.616 62.7198 13.152L65.9838 14.064C65.4878 15.056 64.7118 15.864 63.6558 16.488C62.6158 17.112 61.3758 17.424 59.9358 17.424ZM57.1518 9.72H62.6238C62.5438 8.92 62.2478 8.288 61.7358 7.824C61.2398 7.344 60.6238 7.104 59.8878 7.104C59.1518 7.104 58.5278 7.344 58.0158 7.824C57.5198 8.304 57.2318 8.936 57.1518 9.72Z" fill="black"/>
<path d="M69.0476 17.184V0.144H72.9836V17.184H69.0476Z" fill="black"/>
<path d="M88.5549 17.184H84.7149V10.104C84.7149 9.272 84.5549 8.672 84.2349 8.304C83.9309 7.92 83.5229 7.728 83.0109 7.728C82.4829 7.728 81.9469 7.936 81.4029 8.352C80.8589 8.768 80.4749 9.304 80.2509 9.96V17.184H76.4109V4.584H79.8669V6.696C80.3309 5.96 80.9869 5.384 81.8349 4.968C82.6829 4.552 83.6589 4.344 84.7629 4.344C85.5789 4.344 86.2349 4.496 86.7309 4.8C87.2429 5.088 87.6269 5.472 87.8829 5.952C88.1549 6.416 88.3309 6.928 88.4109 7.488C88.5069 8.048 88.5549 8.592 88.5549 9.12V17.184Z" fill="black"/>
<path d="M102.028 5.136C101.98 5.072 101.812 4.952 101.524 4.776C101.236 4.6 100.876 4.416 100.444 4.224C100.012 4.016 99.5405 3.848 99.0285 3.72C98.5165 3.576 98.0045 3.504 97.4925 3.504C96.0845 3.504 95.3805 3.976 95.3805 4.92C95.3805 5.496 95.6845 5.904 96.2925 6.144C96.9165 6.384 97.8045 6.672 98.9565 7.008C100.044 7.312 100.98 7.664 101.764 8.064C102.564 8.448 103.18 8.968 103.612 9.624C104.044 10.264 104.26 11.112 104.26 12.168C104.26 13.128 104.084 13.944 103.732 14.616C103.38 15.272 102.9 15.808 102.292 16.224C101.684 16.624 100.996 16.92 100.228 17.112C99.4765 17.288 98.6925 17.376 97.8765 17.376C96.6125 17.376 95.3325 17.192 94.0365 16.824C92.7405 16.44 91.5965 15.92 90.6045 15.264L92.3325 11.832C92.3965 11.912 92.6045 12.064 92.9565 12.288C93.3085 12.496 93.7485 12.72 94.2765 12.96C94.8045 13.2 95.3805 13.408 96.0045 13.584C96.6445 13.744 97.2925 13.824 97.9485 13.824C99.3405 13.824 100.036 13.4 100.036 12.552C100.036 12.12 99.8525 11.784 99.4845 11.544C99.1325 11.288 98.6445 11.072 98.0205 10.896C97.3965 10.704 96.6925 10.488 95.9085 10.248C94.3405 9.768 93.1805 9.184 92.4285 8.496C91.6925 7.808 91.3245 6.824 91.3245 5.544C91.3245 4.344 91.6045 3.336 92.1645 2.52C92.7405 1.688 93.5085 1.064 94.4685 0.648C95.4285 0.216 96.4765 0 97.6125 0C98.8125 0 99.9485 0.208 101.02 0.623999C102.092 1.024 103.004 1.44 103.756 1.872L102.028 5.136Z" fill="black"/>
<path d="M106.436 19.08C107.092 19.288 107.644 19.392 108.092 19.392C108.54 19.392 108.892 19.232 109.148 18.912C109.42 18.592 109.66 18.016 109.868 17.184L105.068 4.584H109.028L111.956 13.248L114.452 4.584H118.076L113.276 19.224C112.94 20.264 112.332 21.104 111.452 21.744C110.588 22.4 109.572 22.728 108.404 22.728C107.732 22.728 107.076 22.608 106.436 22.368V19.08Z" fill="black"/>
<path d="M124.581 17.424C123.493 17.424 122.437 17.248 121.413 16.896C120.405 16.528 119.549 16.008 118.845 15.336L120.165 12.912C121.717 14.048 123.149 14.616 124.461 14.616C124.957 14.616 125.341 14.536 125.613 14.376C125.885 14.216 126.021 13.968 126.021 13.632C126.021 13.28 125.837 13.032 125.469 12.888C125.101 12.728 124.557 12.544 123.837 12.336C122.877 12.016 122.077 11.704 121.437 11.4C120.797 11.096 120.317 10.728 119.997 10.296C119.677 9.864 119.517 9.288 119.517 8.568C119.517 7.304 119.989 6.288 120.933 5.52C121.877 4.736 123.157 4.344 124.773 4.344C125.637 4.344 126.477 4.48 127.293 4.752C128.125 5.024 128.901 5.48 129.621 6.12L128.133 8.52C127.413 8.024 126.773 7.664 126.213 7.44C125.653 7.216 125.109 7.104 124.581 7.104C124.165 7.104 123.813 7.184 123.525 7.344C123.237 7.488 123.093 7.744 123.093 8.112C123.093 8.464 123.253 8.728 123.573 8.904C123.893 9.064 124.389 9.24 125.061 9.432C126.085 9.736 126.941 10.048 127.629 10.368C128.333 10.672 128.853 11.056 129.189 11.52C129.541 11.968 129.717 12.568 129.717 13.32C129.717 14.6 129.253 15.608 128.325 16.344C127.397 17.064 126.149 17.424 124.581 17.424Z" fill="black"/>
<path d="M140.233 16.512C139.705 16.736 139.097 16.944 138.409 17.136C137.737 17.328 137.057 17.424 136.369 17.424C135.729 17.424 135.145 17.32 134.617 17.112C134.089 16.888 133.665 16.528 133.345 16.032C133.025 15.536 132.865 14.88 132.865 14.064V7.488H131.257V4.584H132.865V0.576H136.705V4.584H139.273V7.488H136.705V12.744C136.705 13.16 136.809 13.464 137.017 13.656C137.225 13.832 137.489 13.92 137.809 13.92C138.097 13.92 138.393 13.872 138.697 13.776C139.001 13.68 139.265 13.576 139.489 13.464L140.233 16.512Z" fill="black"/>
<path d="M148.093 17.424C146.669 17.424 145.453 17.128 144.445 16.536C143.437 15.944 142.661 15.16 142.117 14.184C141.589 13.208 141.325 12.152 141.325 11.016C141.325 9.8 141.589 8.688 142.117 7.68C142.645 6.672 143.413 5.864 144.421 5.256C145.429 4.648 146.653 4.344 148.093 4.344C149.517 4.344 150.733 4.648 151.741 5.256C152.749 5.864 153.509 6.664 154.021 7.656C154.549 8.648 154.813 9.712 154.813 10.848C154.813 11.312 154.781 11.72 154.717 12.072H145.405C145.469 12.92 145.773 13.568 146.317 14.016C146.877 14.448 147.509 14.664 148.213 14.664C148.773 14.664 149.309 14.528 149.821 14.256C150.333 13.984 150.685 13.616 150.877 13.152L154.141 14.064C153.645 15.056 152.869 15.864 151.813 16.488C150.773 17.112 149.533 17.424 148.093 17.424ZM145.309 9.72H150.781C150.701 8.92 150.405 8.288 149.893 7.824C149.397 7.344 148.781 7.104 148.045 7.104C147.309 7.104 146.685 7.344 146.173 7.824C145.677 8.304 145.389 8.936 145.309 9.72Z" fill="black"/>
<path d="M176.953 17.184H173.113V10.104C173.113 9.288 172.961 8.688 172.657 8.304C172.353 7.92 171.961 7.728 171.481 7.728C170.969 7.728 170.465 7.936 169.969 8.352C169.473 8.768 169.121 9.304 168.913 9.96V17.184H165.073V10.104C165.073 9.272 164.921 8.672 164.617 8.304C164.313 7.92 163.921 7.728 163.441 7.728C162.929 7.728 162.425 7.936 161.929 8.352C161.449 8.768 161.097 9.304 160.873 9.96V17.184H157.033V4.584H160.489V6.696C160.953 5.944 161.585 5.368 162.385 4.968C163.185 4.552 164.105 4.344 165.145 4.344C166.185 4.344 166.985 4.592 167.545 5.088C168.105 5.568 168.465 6.136 168.625 6.792C169.105 6.024 169.737 5.424 170.521 4.992C171.321 4.56 172.217 4.344 173.209 4.344C174.009 4.344 174.649 4.496 175.129 4.8C175.625 5.088 176.001 5.472 176.257 5.952C176.529 6.432 176.713 6.952 176.809 7.512C176.905 8.056 176.953 8.592 176.953 9.12V17.184Z" fill="black"/>
<path d="M0.584961 36.784C0.584961 36.134 0.694961 35.499 0.914961 34.879C1.14496 34.249 1.47496 33.679 1.90496 33.169C2.34496 32.649 2.87996 32.239 3.50996 31.939C4.13996 31.629 4.85496 31.474 5.65496 31.474C6.60496 31.474 7.41996 31.694 8.09996 32.134C8.77996 32.564 9.28496 33.119 9.61496 33.799L8.54996 34.489C8.33996 34.039 8.06996 33.684 7.73996 33.424C7.41996 33.154 7.06996 32.964 6.68996 32.854C6.31996 32.744 5.95496 32.689 5.59496 32.689C5.00496 32.689 4.47996 32.809 4.01996 33.049C3.56996 33.289 3.18996 33.609 2.87996 34.009C2.56996 34.409 2.33496 34.859 2.17496 35.359C2.02496 35.849 1.94996 36.344 1.94996 36.844C1.94996 37.394 2.03996 37.924 2.21996 38.434C2.40996 38.944 2.66996 39.394 2.99996 39.784C3.32996 40.174 3.71996 40.484 4.16996 40.714C4.61996 40.944 5.10996 41.059 5.63996 41.059C6.00996 41.059 6.38996 40.994 6.77996 40.864C7.16996 40.734 7.53496 40.534 7.87496 40.264C8.21496 39.984 8.48496 39.624 8.68496 39.184L9.80996 39.799C9.58996 40.329 9.24996 40.779 8.78996 41.149C8.32996 41.519 7.81496 41.799 7.24496 41.989C6.68496 42.179 6.12996 42.274 5.57996 42.274C4.84996 42.274 4.17996 42.119 3.56996 41.809C2.95996 41.489 2.42996 41.069 1.97996 40.549C1.53996 40.019 1.19496 39.429 0.944961 38.779C0.704961 38.119 0.584961 37.454 0.584961 36.784Z" fill="black"/>
<path d="M11.8746 42.184V31.534H13.2246V40.309L19.3896 31.534H20.6496V42.184H19.2996V33.574L13.2096 42.184H11.8746Z" fill="black"/>
<path d="M30.6193 42.184V32.734H26.6443L26.5843 34.849C26.5343 36.299 26.4243 37.504 26.2543 38.464C26.0943 39.414 25.8593 40.164 25.5493 40.714C25.2493 41.254 24.8743 41.639 24.4243 41.869C23.9743 42.099 23.4393 42.214 22.8193 42.214V41.029C23.1993 41.029 23.5343 40.934 23.8243 40.744C24.1143 40.554 24.3593 40.224 24.5593 39.754C24.7693 39.274 24.9343 38.609 25.0543 37.759C25.1743 36.909 25.2543 35.824 25.2943 34.504L25.3843 31.534H31.9693V42.184H30.6193Z" fill="black"/>
<path d="M38.0663 31.534H39.2063L43.5563 42.184H42.1163L40.8563 39.064H36.3863L35.1413 42.184H33.7013L38.0663 31.534ZM40.5563 38.014L38.6363 33.094L36.6563 38.014H40.5563Z" fill="black"/>
<path d="M57.0779 39.439C57.0779 39.989 56.9379 40.469 56.6579 40.879C56.3779 41.289 55.9979 41.609 55.5179 41.839C55.0479 42.069 54.5279 42.184 53.9579 42.184H48.9029V31.534H54.1979C54.6979 31.534 55.1279 31.669 55.4879 31.939C55.8579 32.199 56.1379 32.539 56.3279 32.959C56.5279 33.369 56.6279 33.799 56.6279 34.249C56.6279 34.769 56.4929 35.259 56.2229 35.719C55.9629 36.169 55.5879 36.504 55.0979 36.724C55.7079 36.904 56.1879 37.239 56.5379 37.729C56.8979 38.209 57.0779 38.779 57.0779 39.439ZM50.2529 32.704V36.259H53.6429C54.1129 36.259 54.5029 36.089 54.8129 35.749C55.1329 35.399 55.2929 34.979 55.2929 34.489C55.2929 33.989 55.1429 33.569 54.8429 33.229C54.5529 32.879 54.1829 32.704 53.7329 32.704H50.2529ZM55.7129 39.199C55.7129 38.869 55.6379 38.564 55.4879 38.284C55.3479 38.004 55.1529 37.779 54.9029 37.609C54.6629 37.439 54.3829 37.354 54.0629 37.354H50.2529V41.014H53.9579C54.2879 41.014 54.5829 40.929 54.8429 40.759C55.1129 40.589 55.3229 40.369 55.4729 40.099C55.6329 39.819 55.7129 39.519 55.7129 39.199Z" fill="black"/>
<path d="M62.6703 36.784C62.6703 36.134 62.7803 35.499 63.0003 34.879C63.2303 34.249 63.5603 33.679 63.9903 33.169C64.4303 32.649 64.9653 32.239 65.5953 31.939C66.2253 31.629 66.9403 31.474 67.7403 31.474C68.6903 31.474 69.5053 31.694 70.1853 32.134C70.8653 32.564 71.3703 33.119 71.7003 33.799L70.6353 34.489C70.4253 34.039 70.1553 33.684 69.8253 33.424C69.5053 33.154 69.1553 32.964 68.7753 32.854C68.4053 32.744 68.0403 32.689 67.6803 32.689C67.0903 32.689 66.5653 32.809 66.1053 33.049C65.6553 33.289 65.2753 33.609 64.9653 34.009C64.6553 34.409 64.4203 34.859 64.2603 35.359C64.1103 35.849 64.0353 36.344 64.0353 36.844C64.0353 37.394 64.1253 37.924 64.3053 38.434C64.4953 38.944 64.7553 39.394 65.0853 39.784C65.4153 40.174 65.8053 40.484 66.2553 40.714C66.7053 40.944 67.1953 41.059 67.7253 41.059C68.0953 41.059 68.4753 40.994 68.8653 40.864C69.2553 40.734 69.6203 40.534 69.9603 40.264C70.3003 39.984 70.5703 39.624 70.7703 39.184L71.8953 39.799C71.6753 40.329 71.3353 40.779 70.8753 41.149C70.4153 41.519 69.9003 41.799 69.3303 41.989C68.7703 42.179 68.2153 42.274 67.6653 42.274C66.9353 42.274 66.2653 42.119 65.6553 41.809C65.0453 41.489 64.5153 41.069 64.0653 40.549C63.6253 40.019 63.2803 39.429 63.0303 38.779C62.7903 38.119 62.6703 37.454 62.6703 36.784Z" fill="black"/>
<path d="M73.9599 42.184V31.534H75.3099V40.309L81.4749 31.534H82.7349V42.184H81.3849V33.574L75.2949 42.184H73.9599Z" fill="black"/>
<path d="M84.9646 36.784C84.9646 36.134 85.0746 35.499 85.2946 34.879C85.5247 34.249 85.8546 33.679 86.2846 33.169C86.7246 32.649 87.2597 32.239 87.8896 31.939C88.5196 31.629 89.2346 31.474 90.0346 31.474C90.9846 31.474 91.7996 31.694 92.4796 32.134C93.1596 32.564 93.6646 33.119 93.9946 33.799L92.9296 34.489C92.7197 34.039 92.4496 33.684 92.1196 33.424C91.7996 33.154 91.4496 32.964 91.0696 32.854C90.6996 32.744 90.3346 32.689 89.9746 32.689C89.3846 32.689 88.8596 32.809 88.3996 33.049C87.9496 33.289 87.5696 33.609 87.2596 34.009C86.9496 34.409 86.7146 34.859 86.5546 35.359C86.4046 35.849 86.3296 36.344 86.3296 36.844C86.3296 37.394 86.4196 37.924 86.5996 38.434C86.7896 38.944 87.0496 39.394 87.3796 39.784C87.7096 40.174 88.0996 40.484 88.5496 40.714C88.9996 40.944 89.4896 41.059 90.0196 41.059C90.3896 41.059 90.7696 40.994 91.1596 40.864C91.5496 40.734 91.9146 40.534 92.2546 40.264C92.5946 39.984 92.8646 39.624 93.0646 39.184L94.1896 39.799C93.9696 40.329 93.6296 40.779 93.1696 41.149C92.7096 41.519 92.1946 41.799 91.6246 41.989C91.0647 42.179 90.5097 42.274 89.9596 42.274C89.2296 42.274 88.5596 42.119 87.9496 41.809C87.3396 41.489 86.8096 41.069 86.3596 40.549C85.9196 40.019 85.5746 39.429 85.3246 38.779C85.0846 38.119 84.9646 37.454 84.9646 36.784Z" fill="black"/>
<path d="M103.859 32.734H100.184V42.184H98.8343V32.734H95.1593V31.534H103.859V32.734Z" fill="black"/>
<path d="M112.923 40.984V42.184H105.693V31.534H112.788V32.734H107.043V36.184H112.038V37.309H107.043V40.984H112.923Z" fill="black"/>
<path d="M124.285 42.184V34.054L120.775 40.309H119.95L116.425 34.054V42.184H115.075V31.534H116.5L120.355 38.449L124.225 31.534H125.635V42.184H124.285Z" fill="black"/>
<path d="M135.716 40.984V42.184H128.486V31.534H135.581V32.734H129.836V36.184H134.831V37.309H129.836V40.984H135.716Z" fill="black"/>
</svg>
