<svg width="155" height="37" viewBox="0 0 155 37" fill="none" xmlns="http://www.w3.org/2000/svg">
<path d="M0 15.0402V0.126035H9.82607V3.15087H3.34331V6.36476H8.68445V9.15854H3.34331V15.0402H0Z" fill="white"/>
<path d="M16.2286 15.2502C15.0054 15.2502 13.9657 14.9842 13.1095 14.452C12.2669 13.9199 11.6213 13.2197 11.1728 12.3514C10.7243 11.4832 10.5001 10.5449 10.5001 9.53664C10.5001 8.51436 10.7243 7.5691 11.1728 6.70086C11.6213 5.83262 12.2737 5.13242 13.1299 4.60027C13.9861 4.06813 15.019 3.80205 16.2286 3.80205C17.4381 3.80205 18.471 4.06813 19.3272 4.60027C20.1835 5.13242 20.8358 5.83262 21.2843 6.70086C21.7328 7.5691 21.957 8.51436 21.957 9.53664C21.957 10.5449 21.7328 11.4832 21.2843 12.3514C20.8358 13.2197 20.1835 13.9199 19.3272 14.452C18.471 14.9842 17.4381 15.2502 16.2286 15.2502ZM13.8434 9.53664C13.8434 10.3909 14.0676 11.0841 14.5161 11.6162C14.9782 12.1484 15.549 12.4144 16.2286 12.4144C16.8945 12.4144 17.4517 12.1484 17.9002 11.6162C18.3623 11.0841 18.5933 10.3909 18.5933 9.53664C18.5933 8.6824 18.3623 7.98921 17.9002 7.45707C17.4517 6.92492 16.8945 6.65884 16.2286 6.65884C15.549 6.65884 14.9782 6.92492 14.5161 7.45707C14.0676 7.98921 13.8434 8.6824 13.8434 9.53664Z" fill="white"/>
<path d="M30.771 6.88991C29.9827 6.90391 29.2692 7.03695 28.6304 7.28902C27.9917 7.54109 27.5296 7.91919 27.2442 8.42333V15.0402H23.9824V4.01211H26.9792V6.23873C27.3461 5.49652 27.8218 4.91536 28.4062 4.49524C28.9906 4.07513 29.6022 3.85807 30.2409 3.84406C30.5128 3.84406 30.6894 3.85107 30.771 3.86507V6.88991Z" fill="white"/>
<path d="M37.5898 15.2502C36.3938 15.2502 35.3609 14.9842 34.4911 14.452C33.6349 13.9199 32.9757 13.2197 32.5137 12.3514C32.0652 11.4832 31.8409 10.5379 31.8409 9.51564C31.8409 8.50736 32.0652 7.5691 32.5137 6.70086C32.9757 5.83262 33.6349 5.13242 34.4911 4.60027C35.3473 4.06813 36.3802 3.80205 37.5898 3.80205C38.813 3.80205 39.8458 4.07513 40.6885 4.62128C41.5447 5.15343 42.1834 5.85362 42.6048 6.72186L39.4245 7.70914C39.0032 7.00894 38.3848 6.65884 37.5694 6.65884C36.9035 6.65884 36.3394 6.91792 35.8774 7.43606C35.4153 7.9542 35.1842 8.6474 35.1842 9.51564C35.1842 10.3839 35.4153 11.0841 35.8774 11.6162C36.3394 12.1484 36.9035 12.4144 37.5694 12.4144C37.9771 12.4144 38.3509 12.3164 38.6906 12.1204C39.0304 11.9103 39.2818 11.6442 39.4449 11.3221L42.6251 12.3304C42.231 13.1847 41.599 13.8848 40.7292 14.431C39.873 14.9771 38.8265 15.2502 37.5898 15.2502Z" fill="white"/>
<path d="M49.5244 15.2502C48.3148 15.2502 47.2819 14.9912 46.4257 14.473C45.5695 13.9549 44.9103 13.2687 44.4483 12.4144C43.9998 11.5602 43.7755 10.6359 43.7755 9.64167C43.7755 8.57738 43.9998 7.60411 44.4483 6.72186C44.8968 5.83962 45.5491 5.13242 46.4053 4.60027C47.2615 4.06813 48.3012 3.80205 49.5244 3.80205C50.734 3.80205 51.7668 4.06813 52.6231 4.60027C53.4793 5.13242 54.1248 5.83262 54.5597 6.70086C55.0082 7.5691 55.2325 8.50035 55.2325 9.49463C55.2325 9.90074 55.2053 10.2578 55.1509 10.5659H47.2411C47.2955 11.3081 47.5537 11.8753 48.0158 12.2674C48.4915 12.6455 49.0283 12.8346 49.6263 12.8346C50.102 12.8346 50.5573 12.7155 50.9922 12.4775C51.4271 12.2394 51.7261 11.9173 51.8892 11.5112L54.6617 12.3094C54.2404 13.1776 53.5812 13.8848 52.6842 14.431C51.8008 14.9771 50.7475 15.2502 49.5244 15.2502ZM47.1596 8.50736H51.8076C51.7397 7.80716 51.4882 7.25401 51.0533 6.8479C50.632 6.42778 50.1088 6.21772 49.4836 6.21772C48.8584 6.21772 48.3284 6.42778 47.8935 6.8479C47.4722 7.26801 47.2276 7.82117 47.1596 8.50736Z" fill="white"/>
<path d="M57.2641 15.0402V0.126035H60.6074V15.0402H57.2641Z" fill="white"/>
<path d="M73.8339 15.0402H70.5722V8.84345C70.5722 8.11525 70.4363 7.5901 70.1644 7.26801C69.9062 6.93192 69.5597 6.76387 69.1248 6.76387C68.6763 6.76387 68.221 6.94592 67.7589 7.31002C67.2968 7.67412 66.9706 8.14326 66.7804 8.71741V15.0402H63.5186V4.01211H66.4542V5.86062C66.8483 5.21644 67.4055 4.71231 68.1258 4.3482C68.8462 3.9841 69.6752 3.80205 70.6129 3.80205C71.3061 3.80205 71.8633 3.93509 72.2846 4.20116C72.7195 4.45323 73.0457 4.78933 73.2631 5.20944C73.4942 5.61556 73.6437 6.06368 73.7116 6.55381C73.7932 7.04395 73.8339 7.52008 73.8339 7.98221V15.0402Z" fill="white"/>
<path d="M85.2786 4.49524C85.2379 4.43923 85.0951 4.3342 84.8505 4.18016C84.6059 4.02612 84.3001 3.86507 83.9332 3.69702C83.5662 3.51497 83.1653 3.36793 82.7304 3.2559C82.2955 3.12987 81.8606 3.06685 81.4257 3.06685C80.2297 3.06685 79.6317 3.47996 79.6317 4.30619C79.6317 4.81033 79.8899 5.16743 80.4064 5.37749C80.9364 5.58755 81.6907 5.83962 82.6692 6.1337C83.5934 6.39977 84.3884 6.70786 85.0544 7.05795C85.7339 7.39405 86.2572 7.84917 86.6241 8.42333C86.9911 8.98349 87.1745 9.72569 87.1745 10.65C87.1745 11.4902 87.025 12.2044 86.726 12.7925C86.427 13.3667 86.0193 13.8358 85.5029 14.1999C84.9864 14.55 84.402 14.8091 83.7497 14.9771C83.1109 15.1312 82.445 15.2082 81.7518 15.2082C80.6782 15.2082 79.5909 15.0472 78.4901 14.7251C77.3892 14.389 76.4175 13.9339 75.5749 13.3597L77.0427 10.3559C77.097 10.4259 77.2737 10.5589 77.5727 10.755C77.8717 10.937 78.2454 11.1331 78.6939 11.3431C79.1424 11.5532 79.6317 11.7353 80.1617 11.8893C80.7054 12.0293 81.2558 12.0994 81.813 12.0994C82.9954 12.0994 83.5866 11.7282 83.5866 10.986C83.5866 10.6079 83.4303 10.3139 83.1177 10.1038C82.8187 9.87974 82.4042 9.69068 81.8742 9.53664C81.3441 9.3686 80.7461 9.17954 80.0802 8.96948C78.7483 8.54937 77.763 8.03823 77.1242 7.43606C76.499 6.83389 76.1865 5.97265 76.1865 4.85234C76.1865 3.80205 76.4243 2.91981 76.9 2.20561C77.3892 1.47741 78.0416 0.931258 78.857 0.567157C79.6725 0.189052 80.5627 0 81.5276 0C82.5469 0 83.5118 0.18205 84.4224 0.546151C85.333 0.896248 86.1077 1.26035 86.7464 1.63845L85.2786 4.49524Z" fill="white"/>
<path d="M89.0222 16.6996C89.5794 16.8817 90.0483 16.9727 90.4288 16.9727C90.8093 16.9727 91.1083 16.8327 91.3258 16.5526C91.5568 16.2725 91.7607 15.7684 91.9374 15.0402L87.8602 4.01211H91.2239L93.711 11.5952L95.8311 4.01211H98.9094L94.8322 16.8257C94.5468 17.7359 94.0303 18.4711 93.2829 19.0313C92.549 19.6054 91.6859 19.8925 90.6938 19.8925C90.123 19.8925 89.5658 19.7875 89.0222 19.5774V16.6996Z" fill="white"/>
<path d="M104.435 15.2502C103.511 15.2502 102.614 15.0962 101.744 14.7881C100.888 14.466 100.161 14.0109 99.563 13.4227L100.684 11.3011C102.003 12.2954 103.219 12.7925 104.333 12.7925C104.755 12.7925 105.081 12.7225 105.312 12.5825C105.543 12.4424 105.658 12.2254 105.658 11.9313C105.658 11.6232 105.502 11.4062 105.19 11.2801C104.877 11.1401 104.415 10.979 103.803 10.797C102.988 10.5169 102.308 10.2438 101.765 9.97776C101.221 9.71169 100.813 9.3896 100.542 9.0115C100.27 8.63339 100.134 8.12925 100.134 7.49908C100.134 6.39277 100.535 5.50352 101.337 4.83134C102.138 4.14515 103.226 3.80205 104.598 3.80205C105.332 3.80205 106.046 3.92109 106.739 4.15915C107.446 4.39722 108.105 4.79633 108.716 5.35648L107.452 7.45707C106.841 7.02294 106.297 6.70786 105.822 6.5118C105.346 6.31575 104.884 6.21772 104.435 6.21772C104.082 6.21772 103.783 6.28774 103.538 6.42778C103.294 6.55381 103.171 6.77788 103.171 7.09997C103.171 7.40805 103.307 7.63912 103.579 7.79316C103.851 7.9332 104.272 8.08724 104.843 8.25529C105.713 8.52136 106.44 8.79444 107.024 9.07451C107.622 9.34059 108.064 9.67668 108.349 10.0828C108.648 10.4749 108.798 11 108.798 11.6582C108.798 12.7785 108.404 13.6608 107.616 14.305C106.827 14.9351 105.767 15.2502 104.435 15.2502Z" fill="white"/>
<path d="M117.73 14.452C117.282 14.6481 116.765 14.8301 116.181 14.9982C115.61 15.1662 115.033 15.2502 114.448 15.2502C113.905 15.2502 113.409 15.1592 112.96 14.9771C112.512 14.7811 112.151 14.466 111.88 14.0319C111.608 13.5978 111.472 13.0236 111.472 12.3094V6.55381H110.106V4.01211H111.472V0.504139H114.734V4.01211H116.915V6.55381H114.734V11.1541C114.734 11.5182 114.822 11.7843 114.999 11.9523C115.175 12.1064 115.4 12.1834 115.671 12.1834C115.916 12.1834 116.167 12.1414 116.426 12.0573C116.684 11.9733 116.908 11.8823 117.098 11.7843L117.73 14.452Z" fill="white"/>
<path d="M124.406 15.2502C123.197 15.2502 122.164 14.9912 121.308 14.473C120.452 13.9549 119.792 13.2687 119.33 12.4144C118.882 11.5602 118.658 10.6359 118.658 9.64167C118.658 8.57738 118.882 7.60411 119.33 6.72186C119.779 5.83962 120.431 5.13242 121.287 4.60027C122.144 4.06813 123.183 3.80205 124.406 3.80205C125.616 3.80205 126.649 4.06813 127.505 4.60027C128.361 5.13242 129.007 5.83262 129.442 6.70086C129.89 7.5691 130.115 8.50035 130.115 9.49463C130.115 9.90074 130.087 10.2578 130.033 10.5659H122.123C122.178 11.3081 122.436 11.8753 122.898 12.2674C123.374 12.6455 123.91 12.8346 124.508 12.8346C124.984 12.8346 125.439 12.7155 125.874 12.4775C126.309 12.2394 126.608 11.9173 126.771 11.5112L129.544 12.3094C129.122 13.1776 128.463 13.8848 127.566 14.431C126.683 14.9771 125.63 15.2502 124.406 15.2502ZM122.042 8.50736H126.69C126.622 7.80716 126.37 7.25401 125.935 6.8479C125.514 6.42778 124.991 6.21772 124.366 6.21772C123.74 6.21772 123.21 6.42778 122.776 6.8479C122.354 7.26801 122.11 7.82117 122.042 8.50736Z" fill="white"/>
<path d="M148.921 15.0402H145.659V8.84345C145.659 8.12925 145.53 7.60411 145.272 7.26801C145.014 6.93192 144.681 6.76387 144.273 6.76387C143.838 6.76387 143.41 6.94592 142.989 7.31002C142.567 7.67412 142.268 8.14326 142.092 8.71741V15.0402H138.83V8.84345C138.83 8.11525 138.701 7.5901 138.443 7.26801C138.184 6.93192 137.851 6.76387 137.444 6.76387C137.009 6.76387 136.581 6.94592 136.159 7.31002C135.752 7.67412 135.453 8.14326 135.262 8.71741V15.0402H132.001V4.01211H134.936V5.86062C135.33 5.20244 135.867 4.6983 136.547 4.3482C137.226 3.9841 138.008 3.80205 138.891 3.80205C139.774 3.80205 140.454 4.01911 140.93 4.45323C141.405 4.87335 141.711 5.37049 141.847 5.94465C142.255 5.27246 142.792 4.74731 143.458 4.36921C144.137 3.99111 144.898 3.80205 145.741 3.80205C146.42 3.80205 146.964 3.93509 147.372 4.20116C147.793 4.45323 148.112 4.78933 148.33 5.20944C148.561 5.62956 148.717 6.08469 148.799 6.57482C148.88 7.05095 148.921 7.52008 148.921 7.98221V15.0402Z" fill="white"/>
<path d="M151.44 15.0402V11.6162H154.111V15.0402H151.44Z" fill="white"/>
<path d="M18.87 31.7398C18.87 31.1709 18.9634 30.6151 19.1503 30.0725C19.3457 29.5211 19.626 29.0222 19.9912 28.5758C20.365 28.1207 20.8194 27.7618 21.3546 27.4992C21.8897 27.2279 22.497 27.0923 23.1766 27.0923C23.9835 27.0923 24.6758 27.2848 25.2534 27.6699C25.831 28.0463 26.26 28.532 26.5403 29.1272L25.6356 29.7311C25.4573 29.3372 25.2279 29.0265 24.9476 28.799C24.6758 28.5627 24.3785 28.3964 24.0557 28.3001C23.7414 28.2038 23.4314 28.1557 23.1256 28.1557C22.6244 28.1557 22.1785 28.2607 21.7878 28.4708C21.4055 28.6808 21.0827 28.9609 20.8194 29.311C20.5561 29.6611 20.3565 30.055 20.2206 30.4926C20.0932 30.9214 20.0295 31.3547 20.0295 31.7923C20.0295 32.2737 20.1059 32.7376 20.2588 33.1839C20.4202 33.6303 20.6411 34.0242 20.9214 34.3655C21.2017 34.7069 21.5329 34.9782 21.9152 35.1795C22.2974 35.3808 22.7136 35.4815 23.1638 35.4815C23.4781 35.4815 23.8009 35.4246 24.1322 35.3108C24.4634 35.197 24.7735 35.0219 25.0623 34.7856C25.3511 34.5406 25.5804 34.2255 25.7503 33.8404L26.7059 34.3786C26.519 34.8425 26.2302 35.2364 25.8395 35.5602C25.4488 35.8841 25.0113 36.1291 24.5271 36.2954C24.0515 36.4617 23.58 36.5449 23.1129 36.5449C22.4928 36.5449 21.9237 36.4092 21.4055 36.1379C20.8874 35.8578 20.4372 35.4902 20.055 35.0351C19.6812 34.5712 19.3882 34.0548 19.1758 33.4859C18.9719 32.9082 18.87 32.3262 18.87 31.7398Z" fill="white"/>
<path d="M28.4596 36.4661V27.1448H29.6063V34.825L34.843 27.1448H35.9133V36.4661H34.7665V28.9303L29.5936 36.4661H28.4596Z" fill="white"/>
<path d="M44.3817 36.4661V28.1951H41.0053L40.9543 30.0462C40.9119 31.3153 40.8184 32.37 40.674 33.2102C40.5381 34.0417 40.3385 34.6981 40.0752 35.1795C39.8204 35.6521 39.5018 35.9891 39.1196 36.1904C38.7373 36.3917 38.2829 36.4924 37.7563 36.4924V35.4552C38.079 35.4552 38.3636 35.372 38.6099 35.2057C38.8563 35.0395 39.0644 34.7506 39.2343 34.3393C39.4126 33.9191 39.5528 33.3371 39.6547 32.5932C39.7566 31.8492 39.8246 30.8996 39.8586 29.7442L39.935 27.1448H45.5284V36.4661H44.3817Z" fill="white"/>
<path d="M50.7074 27.1448H51.6757L55.3707 36.4661H54.1475L53.0773 33.7353H49.2804L48.2228 36.4661H46.9997L50.7074 27.1448ZM52.8224 32.8163L51.1915 28.5101L49.5097 32.8163H52.8224Z" fill="white"/>
<path d="M66.8561 34.0636C66.8561 34.5449 66.7372 34.9651 66.4994 35.3239C66.2616 35.6828 65.9388 35.9628 65.5311 36.1641C65.1318 36.3654 64.6901 36.4661 64.206 36.4661H59.9121V27.1448H64.4098C64.8345 27.1448 65.1998 27.2629 65.5056 27.4992C65.8199 27.7268 66.0577 28.0244 66.2191 28.392C66.389 28.7508 66.4739 29.1272 66.4739 29.5211C66.4739 29.9762 66.3592 30.405 66.1299 30.8077C65.909 31.2015 65.5905 31.4947 65.1743 31.6873C65.6924 31.8448 66.1002 32.138 66.3975 32.5669C66.7033 32.987 66.8561 33.4859 66.8561 34.0636ZM61.0589 28.1688V31.2803H63.9384C64.3376 31.2803 64.6689 31.1315 64.9322 30.8339C65.204 30.5276 65.3399 30.16 65.3399 29.7311C65.3399 29.2935 65.2125 28.9259 64.9577 28.6283C64.7114 28.322 64.3971 28.1688 64.0148 28.1688H61.0589ZM65.6967 33.8535C65.6967 33.5647 65.633 33.2977 65.5056 33.0527C65.3867 32.8076 65.221 32.6107 65.0087 32.4619C64.8048 32.3131 64.567 32.2387 64.2951 32.2387H61.0589V35.4421H64.206C64.4863 35.4421 64.7368 35.3677 64.9577 35.2189C65.187 35.0701 65.3654 34.8775 65.4928 34.6412C65.6287 34.3961 65.6967 34.1336 65.6967 33.8535Z" fill="white"/>
<path d="M71.6064 31.7398C71.6064 31.1709 71.6999 30.6151 71.8868 30.0725C72.0821 29.5211 72.3624 29.0222 72.7277 28.5758C73.1014 28.1207 73.5559 27.7618 74.091 27.4992C74.6261 27.2279 75.2335 27.0923 75.913 27.0923C76.7199 27.0923 77.4122 27.2848 77.9898 27.6699C78.5674 28.0463 78.9964 28.532 79.2767 29.1272L78.3721 29.7311C78.1937 29.3372 77.9643 29.0265 77.684 28.799C77.4122 28.5627 77.1149 28.3964 76.7922 28.3001C76.4779 28.2038 76.1678 28.1557 75.862 28.1557C75.3609 28.1557 74.9149 28.2607 74.5242 28.4708C74.142 28.6808 73.8192 28.9609 73.5559 29.311C73.2925 29.6611 73.0929 30.055 72.957 30.4926C72.8296 30.9214 72.7659 31.3547 72.7659 31.7923C72.7659 32.2737 72.8424 32.7376 72.9952 33.1839C73.1566 33.6303 73.3775 34.0242 73.6578 34.3655C73.9381 34.7069 74.2694 34.9782 74.6516 35.1795C75.0339 35.3808 75.4501 35.4815 75.9003 35.4815C76.2145 35.4815 76.5373 35.4246 76.8686 35.3108C77.1999 35.197 77.5099 35.0219 77.7987 34.7856C78.0875 34.5406 78.3168 34.2255 78.4867 33.8404L79.4423 34.3786C79.2555 34.8425 78.9667 35.2364 78.5759 35.5602C78.1852 35.8841 77.7477 36.1291 77.2636 36.2954C76.7879 36.4617 76.3165 36.5449 75.8493 36.5449C75.2292 36.5449 74.6601 36.4092 74.142 36.1379C73.6238 35.8578 73.1736 35.4902 72.7914 35.0351C72.4176 34.5712 72.1246 34.0548 71.9122 33.4859C71.7084 32.9082 71.6064 32.3262 71.6064 31.7398Z" fill="white"/>
<path d="M81.1961 36.4661V27.1448H82.3428V34.825L87.5794 27.1448H88.6497V36.4661H87.503V28.9303L82.33 36.4661H81.1961Z" fill="white"/>
<path d="M90.5437 31.7398C90.5437 31.1709 90.6371 30.6151 90.824 30.0725C91.0193 29.5211 91.2996 29.0222 91.6649 28.5758C92.0386 28.1207 92.4931 27.7618 93.0282 27.4992C93.5633 27.2279 94.1707 27.0923 94.8502 27.0923C95.6572 27.0923 96.3494 27.2848 96.927 27.6699C97.5046 28.0463 97.9336 28.532 98.2139 29.1272L97.3093 29.7311C97.1309 29.3372 96.9016 29.0265 96.6212 28.799C96.3494 28.5627 96.0521 28.3964 95.7294 28.3001C95.4151 28.2038 95.105 28.1557 94.7992 28.1557C94.2981 28.1557 93.8521 28.2607 93.4614 28.4708C93.0792 28.6808 92.7564 28.9609 92.4931 29.311C92.2298 29.6611 92.0301 30.055 91.8942 30.4926C91.7668 30.9214 91.7031 31.3547 91.7031 31.7923C91.7031 32.2737 91.7796 32.7376 91.9325 33.1839C92.0939 33.6303 92.3147 34.0242 92.595 34.3655C92.8753 34.7069 93.2066 34.9782 93.5888 35.1795C93.9711 35.3808 94.3873 35.4815 94.8375 35.4815C95.1518 35.4815 95.4745 35.4246 95.8058 35.3108C96.1371 35.197 96.4471 35.0219 96.7359 34.7856C97.0247 34.5406 97.2541 34.2255 97.424 33.8404L98.3795 34.3786C98.1927 34.8425 97.9039 35.2364 97.5131 35.5602C97.1224 35.8841 96.685 36.1291 96.2008 36.2954C95.7251 36.4617 95.2537 36.5449 94.7865 36.5449C94.1664 36.5449 93.5973 36.4092 93.0792 36.1379C92.561 35.8578 92.1108 35.4902 91.7286 35.0351C91.3549 34.5712 91.0618 34.0548 90.8495 33.4859C90.6456 32.9082 90.5437 32.3262 90.5437 31.7398Z" fill="white"/>
<path d="M106.593 28.1951H103.471V36.4661H102.325V28.1951H99.2031V27.1448H106.593V28.1951Z" fill="white"/>
<path d="M114.292 35.4158V36.4661H108.151V27.1448H114.177V28.1951H109.298V31.2146H113.54V32.1993H109.298V35.4158H114.292Z" fill="white"/>
<path d="M123.943 36.4661V29.3504L120.962 34.825H120.261L117.267 29.3504V36.4661H116.12V27.1448H117.33L120.605 33.1971L123.892 27.1448H125.09V36.4661H123.943Z" fill="white"/>
<path d="M133.652 35.4158V36.4661H127.511V27.1448H133.538V28.1951H128.658V31.2146H132.901V32.1993H128.658V35.4158H133.652Z" fill="white"/>
</svg>
