<svg width="98" height="24" viewBox="0 0 98 24" fill="none" xmlns="http://www.w3.org/2000/svg">
<path d="M0.579506 9.75578V0.0817521H6.9823V2.04381H2.75805V4.1285H6.23841V5.94067H2.75805V9.75578H0.579506Z" fill="black"/>
<path d="M11.1542 9.89204C10.3572 9.89204 9.67974 9.71945 9.12182 9.37427C8.57276 9.0291 8.15211 8.57492 7.85986 8.01173C7.56762 7.44855 7.4215 6.83995 7.4215 6.18593C7.4215 5.52283 7.56762 4.90968 7.85986 4.3465C8.15211 3.78332 8.57719 3.32914 9.13511 2.98396C9.69303 2.63879 10.3661 2.4662 11.1542 2.4662C11.9424 2.4662 12.6155 2.63879 13.1734 2.98396C13.7313 3.32914 14.1564 3.78332 14.4486 4.3465C14.7409 4.90968 14.887 5.52283 14.887 6.18593C14.887 6.83995 14.7409 7.44855 14.4486 8.01173C14.1564 8.57492 13.7313 9.0291 13.1734 9.37427C12.6155 9.71945 11.9424 9.89204 11.1542 9.89204ZM9.60004 6.18593C9.60004 6.74003 9.74616 7.18967 10.0384 7.53484C10.3395 7.88002 10.7115 8.05261 11.1542 8.05261C11.5882 8.05261 11.9513 7.88002 12.2435 7.53484C12.5446 7.18967 12.6952 6.74003 12.6952 6.18593C12.6952 5.63183 12.5446 5.18219 12.2435 4.83702C11.9513 4.49184 11.5882 4.31925 11.1542 4.31925C10.7115 4.31925 10.3395 4.49184 10.0384 4.83702C9.74616 5.18219 9.60004 5.63183 9.60004 6.18593Z" fill="black"/>
<path d="M20.6303 4.46913C20.1166 4.47821 19.6517 4.56451 19.2355 4.72801C18.8192 4.89152 18.5181 5.13677 18.3322 5.46378V9.75578H16.2068V2.60245H18.1595V4.04674C18.3986 3.56531 18.7085 3.18834 19.0893 2.91583C19.4702 2.64333 19.8687 2.50253 20.2849 2.49345C20.462 2.49345 20.5771 2.49799 20.6303 2.50707V4.46913Z" fill="black"/>
<path d="M25.0735 9.89204C24.2942 9.89204 23.6211 9.71945 23.0544 9.37427C22.4964 9.0291 22.0669 8.57492 21.7658 8.01173C21.4736 7.44855 21.3275 6.83541 21.3275 6.1723C21.3275 5.51829 21.4736 4.90968 21.7658 4.3465C22.0669 3.78332 22.4964 3.32914 23.0544 2.98396C23.6123 2.63879 24.2853 2.4662 25.0735 2.4662C25.8705 2.4662 26.5436 2.64333 27.0926 2.99759C27.6506 3.34276 28.0668 3.79694 28.3413 4.36013L26.269 5.00052C25.9945 4.54634 25.5916 4.31925 25.0602 4.31925C24.6263 4.31925 24.2588 4.4873 23.9577 4.82339C23.6566 5.15948 23.506 5.60912 23.506 6.1723C23.506 6.73549 23.6566 7.18967 23.9577 7.53484C24.2588 7.88002 24.6263 8.05261 25.0602 8.05261C25.3259 8.05261 25.5694 7.98902 25.7908 7.86185C26.0122 7.7256 26.1761 7.55301 26.2823 7.34409L28.3546 7.99811C28.0978 8.55221 27.686 9.00639 27.1192 9.36065C26.5613 9.71491 25.8794 9.89204 25.0735 9.89204Z" fill="black"/>
<path d="M32.8502 9.89204C32.0621 9.89204 31.389 9.72399 30.8311 9.3879C30.2732 9.05181 29.8437 8.60671 29.5426 8.05261C29.2503 7.49851 29.1042 6.89899 29.1042 6.25406C29.1042 5.5637 29.2503 4.93239 29.5426 4.36013C29.8348 3.78786 30.2599 3.32914 30.8178 2.98396C31.3757 2.63879 32.0532 2.4662 32.8502 2.4662C33.6384 2.4662 34.3115 2.63879 34.8694 2.98396C35.4273 3.32914 35.8479 3.78332 36.1313 4.3465C36.4236 4.90968 36.5697 5.51374 36.5697 6.15868C36.5697 6.4221 36.552 6.65374 36.5166 6.85357H31.3624C31.3979 7.335 31.5661 7.70289 31.8672 7.95723C32.1772 8.20249 32.527 8.32512 32.9166 8.32512C33.2266 8.32512 33.5233 8.24791 33.8067 8.09349C34.09 7.93906 34.2849 7.73014 34.3912 7.46672L36.1978 7.98448C35.9232 8.54766 35.4937 9.00639 34.9092 9.36065C34.3336 9.71491 33.6473 9.89204 32.8502 9.89204ZM31.3093 5.51829H34.338C34.2937 5.06411 34.1299 4.7053 33.8465 4.44188C33.572 4.16937 33.231 4.03312 32.8237 4.03312C32.4163 4.03312 32.0709 4.16937 31.7875 4.44188C31.513 4.71439 31.3536 5.07319 31.3093 5.51829Z" fill="black"/>
<path d="M37.8935 9.75578V0.0817521H40.0721V9.75578H37.8935Z" fill="black"/>
<path d="M48.6907 9.75578H46.5652V5.73629C46.5652 5.26395 46.4767 4.92331 46.2996 4.71439C46.1313 4.49638 45.9055 4.38738 45.6221 4.38738C45.3298 4.38738 45.0332 4.50546 44.7321 4.74164C44.431 4.97781 44.2184 5.28211 44.0945 5.65454V9.75578H41.969V2.60245H43.8819V3.80149C44.1387 3.38364 44.5018 3.05663 44.9712 2.82046C45.4405 2.58428 45.9808 2.4662 46.5918 2.4662C47.0435 2.4662 47.4065 2.55249 47.6811 2.72508C47.9645 2.88858 48.177 3.10659 48.3187 3.3791C48.4693 3.64252 48.5667 3.9332 48.6109 4.25112C48.6641 4.56905 48.6907 4.87789 48.6907 5.17765V9.75578Z" fill="black"/>
<path d="M56.1482 2.91583C56.1216 2.8795 56.0286 2.81137 55.8692 2.71145C55.7098 2.61153 55.5105 2.50707 55.2714 2.39807C55.0323 2.27998 54.7711 2.1846 54.4877 2.11194C54.2043 2.03018 53.9209 1.98931 53.6375 1.98931C52.8582 1.98931 52.4685 2.25727 52.4685 2.79321C52.4685 3.12022 52.6368 3.35185 52.9733 3.4881C53.3187 3.62436 53.8102 3.78786 54.4478 3.97862C55.05 4.1512 55.5681 4.35104 56.002 4.57813C56.4448 4.79614 56.7858 5.09136 57.0249 5.46378C57.264 5.82713 57.3836 6.30856 57.3836 6.90808C57.3836 7.45309 57.2861 7.91635 57.0913 8.29787C56.8965 8.67029 56.6308 8.97459 56.2943 9.21077C55.9578 9.43786 55.577 9.6059 55.1519 9.71491C54.7356 9.81483 54.3017 9.86479 53.8501 9.86479C53.1504 9.86479 52.442 9.76033 51.7247 9.5514C51.0073 9.3334 50.3741 9.03818 49.8251 8.66575L50.7815 6.71732C50.8169 6.76274 50.9321 6.84903 51.1269 6.9762C51.3217 7.09429 51.5652 7.22146 51.8575 7.35771C52.1497 7.49397 52.4685 7.61205 52.8139 7.71197C53.1682 7.80281 53.5268 7.84823 53.8899 7.84823C54.6604 7.84823 55.0456 7.60751 55.0456 7.12608C55.0456 6.88082 54.9438 6.69007 54.7401 6.55382C54.5452 6.40848 54.2751 6.28585 53.9298 6.18593C53.5844 6.07693 53.1947 5.9543 52.7608 5.81804C51.8929 5.54554 51.2509 5.21399 50.8346 4.82339C50.4273 4.4328 50.2236 3.87415 50.2236 3.14747C50.2236 2.4662 50.3786 1.89393 50.6885 1.43067C51.0073 0.958319 51.4324 0.604059 51.9638 0.367886C52.4951 0.122629 53.0752 0 53.7039 0C54.3681 0 54.9969 0.118087 55.5902 0.35426C56.1836 0.58135 56.6884 0.817524 57.1046 1.06278L56.1482 2.91583Z" fill="black"/>
<path d="M58.5875 10.8322C58.9506 10.9503 59.2561 11.0093 59.5041 11.0093C59.752 11.0093 59.9469 10.9185 60.0886 10.7368C60.2391 10.5551 60.372 10.2281 60.4871 9.75578L57.8303 2.60245H60.0222L61.6428 7.52122L63.0243 2.60245H65.0302L62.3734 10.9139C62.1874 11.5044 61.8509 11.9813 61.3638 12.3446C60.8856 12.717 60.3233 12.9032 59.6768 12.9032C59.3048 12.9032 58.9417 12.8351 58.5875 12.6989V10.8322Z" fill="black"/>
<path d="M68.6309 9.89204C68.0287 9.89204 67.4442 9.79212 66.8774 9.59228C66.3195 9.38336 65.8457 9.08814 65.4561 8.70663L66.1867 7.33046C67.0457 7.9754 67.8383 8.29787 68.5645 8.29787C68.839 8.29787 69.0515 8.25245 69.2021 8.16161C69.3526 8.07078 69.4279 7.92998 69.4279 7.73922C69.4279 7.53939 69.3261 7.39859 69.1224 7.31684C68.9187 7.226 68.6176 7.12154 68.2191 7.00345C67.6877 6.82178 67.2449 6.64465 66.8907 6.47206C66.5365 6.29948 66.2708 6.09055 66.0937 5.84529C65.9166 5.60004 65.828 5.27303 65.828 4.86427C65.828 4.14666 66.0893 3.56985 66.6118 3.13384C67.1343 2.68874 67.8427 2.4662 68.7372 2.4662C69.2154 2.4662 69.6803 2.54341 70.132 2.69783C70.5925 2.85225 71.022 3.11113 71.4205 3.47448L70.5969 4.83702C70.1984 4.55542 69.8442 4.35104 69.5342 4.22387C69.2242 4.0967 68.9231 4.03312 68.6309 4.03312C68.4006 4.03312 68.2058 4.07854 68.0464 4.16937C67.887 4.25112 67.8073 4.39646 67.8073 4.60538C67.8073 4.80522 67.8959 4.9551 68.073 5.05502C68.2501 5.14586 68.5246 5.24578 68.8966 5.35478C69.4633 5.52737 69.9371 5.7045 70.3179 5.88617C70.7076 6.05876 70.9954 6.27677 71.1814 6.54019C71.3762 6.79453 71.4736 7.13517 71.4736 7.56209C71.4736 8.28878 71.2168 8.86105 70.7032 9.27889C70.1895 9.68766 69.4988 9.89204 68.6309 9.89204Z" fill="black"/>
<path d="M77.2941 9.37427C77.0019 9.50144 76.6654 9.61953 76.2845 9.72853C75.9126 9.83754 75.5362 9.89204 75.1554 9.89204C74.8012 9.89204 74.478 9.83299 74.1857 9.71491C73.8935 9.58774 73.6588 9.38336 73.4817 9.10176C73.3046 8.82017 73.216 8.44775 73.216 7.98448V4.25112H72.326V2.60245H73.216V0.327009H75.3414V2.60245H76.7628V4.25112H75.3414V7.23509C75.3414 7.47126 75.399 7.64385 75.5141 7.75285C75.6292 7.85277 75.7753 7.90273 75.9524 7.90273C76.1119 7.90273 76.2757 7.87548 76.4439 7.82098C76.6122 7.76648 76.7583 7.70743 76.8823 7.64385L77.2941 9.37427Z" fill="black"/>
<path d="M81.6444 9.89204C80.8562 9.89204 80.1831 9.72399 79.6252 9.3879C79.0673 9.05181 78.6378 8.60671 78.3367 8.05261C78.0444 7.49851 77.8983 6.89899 77.8983 6.25406C77.8983 5.5637 78.0444 4.93239 78.3367 4.36013C78.6289 3.78786 79.054 3.32914 79.6119 2.98396C80.1699 2.63879 80.8473 2.4662 81.6444 2.4662C82.4325 2.4662 83.1056 2.63879 83.6635 2.98396C84.2214 3.32914 84.6421 3.78332 84.9255 4.3465C85.2177 4.90968 85.3638 5.51374 85.3638 6.15868C85.3638 6.4221 85.3461 6.65374 85.3107 6.85357H80.1566C80.192 7.335 80.3603 7.70289 80.6614 7.95723C80.9713 8.20249 81.3211 8.32512 81.7108 8.32512C82.0207 8.32512 82.3174 8.24791 82.6008 8.09349C82.8842 7.93906 83.079 7.73014 83.1853 7.46672L84.9919 7.98448C84.7173 8.54766 84.2878 9.00639 83.7033 9.36065C83.1277 9.71491 82.4414 9.89204 81.6444 9.89204ZM80.1034 5.51829H83.1321C83.0879 5.06411 82.924 4.7053 82.6406 4.44188C82.3661 4.16937 82.0252 4.03312 81.6178 4.03312C81.2104 4.03312 80.865 4.16937 80.5816 4.44188C80.3071 4.71439 80.1477 5.07319 80.1034 5.51829Z" fill="black"/>
<path d="M97.6183 9.75578H95.4929V5.73629C95.4929 5.27303 95.4088 4.93239 95.2405 4.71439C95.0723 4.49638 94.8553 4.38738 94.5896 4.38738C94.3062 4.38738 94.0273 4.50546 93.7527 4.74164C93.4782 4.97781 93.2834 5.28211 93.1683 5.65454V9.75578H91.0428V5.73629C91.0428 5.26395 90.9587 4.92331 90.7905 4.71439C90.6222 4.49638 90.4052 4.38738 90.1396 4.38738C89.8562 4.38738 89.5772 4.50546 89.3027 4.74164C89.037 4.97781 88.8422 5.28211 88.7182 5.65454V9.75578H86.5928V2.60245H88.5056V3.80149C88.7625 3.37456 89.1123 3.04755 89.5551 2.82046C89.9979 2.58428 90.5071 2.4662 91.0827 2.4662C91.6583 2.4662 92.1011 2.60699 92.4111 2.88858C92.721 3.16109 92.9203 3.48356 93.0089 3.85599C93.2745 3.41997 93.6243 3.07934 94.0583 2.83408C94.5011 2.58883 94.997 2.4662 95.5461 2.4662C95.9889 2.4662 96.3431 2.55249 96.6088 2.72508C96.8833 2.88858 97.0914 3.10659 97.2331 3.3791C97.3837 3.65161 97.4855 3.94682 97.5386 4.26475C97.5918 4.57359 97.6183 4.87789 97.6183 5.17765V9.75578Z" fill="black"/>
<path d="M0 20.8832C0 20.5142 0.0608841 20.1537 0.182652 19.8017C0.309956 19.444 0.492608 19.1204 0.730609 18.8309C0.974146 18.5356 1.27026 18.3029 1.61896 18.1326C1.96766 17.9566 2.36341 17.8686 2.8062 17.8686C3.33202 17.8686 3.78312 17.9935 4.15949 18.2433C4.53587 18.4874 4.81538 18.8025 4.99803 19.1885L4.40856 19.5803C4.29233 19.3248 4.14289 19.1232 3.96024 18.9756C3.78312 18.8223 3.5894 18.7145 3.37907 18.652C3.17428 18.5896 2.97225 18.5584 2.77299 18.5584C2.44643 18.5584 2.15585 18.6265 1.90124 18.7627C1.65217 18.899 1.44185 19.0807 1.27026 19.3078C1.09868 19.5348 0.968611 19.7903 0.880052 20.0742C0.797028 20.3524 0.755517 20.6334 0.755517 20.9173C0.755517 21.2295 0.805331 21.5304 0.904959 21.8199C1.01012 22.1095 1.15403 22.365 1.33668 22.5864C1.51934 22.8078 1.7352 22.9838 1.98427 23.1143C2.23334 23.2449 2.50455 23.3102 2.7979 23.3102C3.00269 23.3102 3.21302 23.2733 3.42888 23.1995C3.64474 23.1257 3.84677 23.0122 4.03496 22.8589C4.22314 22.6999 4.37259 22.4955 4.48328 22.2457L5.10596 22.5949C4.98419 22.8958 4.79601 23.1513 4.5414 23.3613C4.2868 23.5714 4.00175 23.7303 3.68626 23.8382C3.3763 23.9461 3.06911 24 2.76469 24C2.36064 24 1.9898 23.912 1.65217 23.736C1.31454 23.5543 1.02119 23.3159 0.772121 23.0207C0.528585 22.7198 0.33763 22.3848 0.199257 22.0158C0.066419 21.6411 0 21.2636 0 20.8832Z" fill="black"/>
<path d="M6.24871 23.9489V17.9026H6.99592V22.8844L10.4082 17.9026H11.1056V23.9489H10.3584V19.0608L6.98762 23.9489H6.24871Z" fill="black"/>
<path d="M16.6238 23.9489V18.5839H14.4236L14.3904 19.7846C14.3627 20.6078 14.3019 21.292 14.2078 21.837C14.1192 22.3763 13.9891 22.8021 13.8176 23.1143C13.6515 23.4209 13.444 23.6395 13.1949 23.7701C12.9458 23.9006 12.6497 23.9659 12.3065 23.9659V23.2932C12.5169 23.2932 12.7023 23.2392 12.8628 23.1314C13.0233 23.0235 13.1589 22.8362 13.2696 22.5693C13.3858 22.2968 13.4772 21.9193 13.5436 21.4367C13.61 20.9542 13.6543 20.3382 13.6764 19.5888L13.7262 17.9026H17.371V23.9489H16.6238Z" fill="black"/>
<path d="M20.7456 17.9026H21.3766L23.7843 23.9489H22.9873L22.2899 22.1776H19.8158L19.1267 23.9489H18.3296L20.7456 17.9026ZM22.1238 21.5815L21.0611 18.7883L19.9652 21.5815H22.1238Z" fill="black"/>
<path d="M31.2684 22.3905C31.2684 22.7027 31.1909 22.9753 31.0359 23.208C30.8809 23.4408 30.6706 23.6225 30.4049 23.753C30.1448 23.8836 29.857 23.9489 29.5415 23.9489H26.7436V17.9026H29.6743C29.9511 17.9026 30.1891 17.9793 30.3883 18.1326C30.5931 18.2802 30.7481 18.4732 30.8533 18.7116C30.964 18.9444 31.0193 19.1885 31.0193 19.444C31.0193 19.7392 30.9446 20.0174 30.7951 20.2786C30.6512 20.534 30.4437 20.7242 30.1725 20.8491C30.5101 20.9513 30.7758 21.1415 30.9695 21.4197C31.1688 21.6922 31.2684 22.0158 31.2684 22.3905ZM27.4908 18.5669V20.5851H29.3671C29.6273 20.5851 29.8431 20.4886 30.0147 20.2956C30.1918 20.0969 30.2804 19.8584 30.2804 19.5803C30.2804 19.2964 30.1974 19.058 30.0313 18.8649C29.8708 18.6662 29.666 18.5669 29.417 18.5669H27.4908ZM30.5129 22.2542C30.5129 22.0669 30.4714 21.8937 30.3883 21.7348C30.3108 21.5758 30.2029 21.4481 30.0645 21.3516C29.9317 21.2551 29.7767 21.2068 29.5996 21.2068H27.4908V23.2847H29.5415C29.7241 23.2847 29.8874 23.2364 30.0313 23.1399C30.1808 23.0434 30.297 22.9185 30.38 22.7652C30.4686 22.6062 30.5129 22.4359 30.5129 22.2542Z" fill="black"/>
<path d="M34.3637 20.8832C34.3637 20.5142 34.4246 20.1537 34.5464 19.8017C34.6737 19.444 34.8563 19.1204 35.0943 18.8309C35.3379 18.5356 35.634 18.3029 35.9827 18.1326C36.3314 17.9566 36.7271 17.8686 37.1699 17.8686C37.6958 17.8686 38.1469 17.9935 38.5232 18.2433C38.8996 18.4874 39.1791 18.8025 39.3618 19.1885L38.7723 19.5803C38.6561 19.3248 38.5066 19.1232 38.324 18.9756C38.1469 18.8223 37.9531 18.7145 37.7428 18.652C37.538 18.5896 37.336 18.5584 37.1367 18.5584C36.8102 18.5584 36.5196 18.6265 36.265 18.7627C36.0159 18.899 35.8056 19.0807 35.634 19.3078C35.4624 19.5348 35.3324 19.7903 35.2438 20.0742C35.1608 20.3524 35.1193 20.6334 35.1193 20.9173C35.1193 21.2295 35.1691 21.5304 35.2687 21.8199C35.3739 22.1095 35.5178 22.365 35.7004 22.5864C35.8831 22.8078 36.0989 22.9838 36.348 23.1143C36.5971 23.2449 36.8683 23.3102 37.1616 23.3102C37.3664 23.3102 37.5768 23.2733 37.7926 23.1995C38.0085 23.1257 38.2105 23.0122 38.3987 22.8589C38.5869 22.6999 38.7363 22.4955 38.847 22.2457L39.4697 22.5949C39.3479 22.8958 39.1598 23.1513 38.9051 23.3613C38.6505 23.5714 38.3655 23.7303 38.05 23.8382C37.74 23.9461 37.4329 24 37.1284 24C36.7244 24 36.3535 23.912 36.0159 23.736C35.6783 23.5543 35.3849 23.3159 35.1359 23.0207C34.8923 22.7198 34.7014 22.3848 34.563 22.0158C34.4302 21.6411 34.3637 21.2636 34.3637 20.8832Z" fill="black"/>
<path d="M40.6124 23.9489V17.9026H41.3597V22.8844L44.7719 17.9026H45.4693V23.9489H44.7221V19.0608L41.3514 23.9489H40.6124Z" fill="black"/>
<path d="M46.7035 20.8832C46.7035 20.5142 46.7644 20.1537 46.8861 19.8017C47.0134 19.444 47.1961 19.1204 47.4341 18.8309C47.6776 18.5356 47.9737 18.3029 48.3224 18.1326C48.6711 17.9566 49.0669 17.8686 49.5097 17.8686C50.0355 17.8686 50.4866 17.9935 50.863 18.2433C51.2393 18.4874 51.5189 18.8025 51.7015 19.1885L51.112 19.5803C50.9958 19.3248 50.8464 19.1232 50.6637 18.9756C50.4866 18.8223 50.2929 18.7145 50.0825 18.652C49.8778 18.5896 49.6757 18.5584 49.4765 18.5584C49.1499 18.5584 48.8593 18.6265 48.6047 18.7627C48.3556 18.899 48.1453 19.0807 47.9737 19.3078C47.8022 19.5348 47.6721 19.7903 47.5835 20.0742C47.5005 20.3524 47.459 20.6334 47.459 20.9173C47.459 21.2295 47.5088 21.5304 47.6084 21.8199C47.7136 22.1095 47.8575 22.365 48.0402 22.5864C48.2228 22.8078 48.4387 22.9838 48.6877 23.1143C48.9368 23.2449 49.208 23.3102 49.5014 23.3102C49.7062 23.3102 49.9165 23.2733 50.1324 23.1995C50.3482 23.1257 50.5502 23.0122 50.7384 22.8589C50.9266 22.6999 51.0761 22.4955 51.1868 22.2457L51.8094 22.5949C51.6877 22.8958 51.4995 23.1513 51.2449 23.3613C50.9903 23.5714 50.7052 23.7303 50.3897 23.8382C50.0798 23.9461 49.7726 24 49.4682 24C49.0641 24 48.6933 23.912 48.3556 23.736C48.018 23.5543 47.7247 23.3159 47.4756 23.0207C47.2321 22.7198 47.0411 22.3848 46.9027 22.0158C46.7699 21.6411 46.7035 21.2636 46.7035 20.8832Z" fill="black"/>
<path d="M57.1615 18.5839H55.1274V23.9489H54.3802V18.5839H52.3461V17.9026H57.1615V18.5839Z" fill="black"/>
<path d="M62.1783 23.2676V23.9489H58.1765V17.9026H62.1035V18.5839H58.9237V20.5426H61.6884V21.1812H58.9237V23.2676H62.1783Z" fill="black"/>
<path d="M68.4671 23.9489V19.3333L66.5243 22.8844H66.0677L64.1166 19.3333V23.9489H63.3694V17.9026H64.1581L66.2918 21.8285L68.4339 17.9026H69.2143V23.9489H68.4671Z" fill="black"/>
<path d="M74.7937 23.2676V23.9489H70.7919V17.9026H74.7189V18.5839H71.5391V20.5426H74.3038V21.1812H71.5391V23.2676H74.7937Z" fill="black"/>
</svg>
